<?xml version="1.0" encoding="UTF-8" standalone="no"?>
<!DOCTYPE svg PUBLIC "-//W3C//DTD SVG 1.1//EN" "http://www.w3.org/Graphics/SVG/1.1/DTD/svg11.dtd">
<svg xmlns="http://www.w3.org/2000/svg" version="1.1" viewBox="0 0 438 269">
<g stroke-width="2.00" fill="none" stroke-linecap="butt">
<path stroke="#ec9195" vector-effect="non-scaling-stroke" d="
  M 138.68 95.43
  Q 142.77 97.42 145.36 93.69
  A 1.73 1.43 66.9 0 0 145.63 92.77
  C 145.76 52.93 177.87 23.04 216.95 21.84
  C 254.28 20.69 287.99 47.12 292.15 84.92
  C 296.46 124.13 266.13 155.95 228.47 161.20
  C 225.95 161.55 219.00 161.16 217.49 161.97
  C 213.00 164.41 213.99 170.45 219.50 170.47
  C 264.74 170.63 304.99 133.44 301.77 87.24
  C 298.44 39.59 254.13 7.73 208.00 13.55
  C 168.05 18.59 137.25 50.76 136.37 91.65
  Q 136.32 94.28 138.68 95.43"
/>
<path stroke="#908f8f" vector-effect="non-scaling-stroke" d="
  M 234.79 140.96
  C 203.13 150.42 168.45 129.43 165.22 95.62
  C 165.09 94.19 165.55 92.16 164.69 90.21
  C 163.02 86.40 158.55 86.86 156.41 90.07
  A 1.71 1.57 64.1 0 0 156.13 91.00
  C 155.81 132.49 196.71 159.76 235.61 149.77
  C 260.65 143.34 280.14 122.09 281.96 95.90
  C 284.44 60.17 254.85 31.60 219.30 31.58
  C 213.00 31.58 212.89 40.23 219.44 40.33
  C 248.79 40.74 273.92 63.04 272.96 93.35
  C 272.24 116.15 256.23 134.55 234.79 140.96"
/>
<path stroke="#ec9195" vector-effect="non-scaling-stroke" d="
  M 233.97 121.29
  C 212.75 131.30 185.82 117.09 184.81 92.98
  C 184.12 76.47 196.01 63.30 211.95 59.71
  C 214.51 59.14 217.61 59.41 220.51 58.75
  Q 222.87 58.22 223.40 55.85
  C 224.49 50.89 220.52 50.07 216.61 50.26
  Q 199.89 51.09 188.11 62.37
  C 172.57 77.25 171.09 102.49 185.85 118.67
  C 197.22 131.13 213.92 136.12 230.13 132.07
  C 248.78 127.40 263.46 110.61 262.55 90.77
  Q 262.42 87.90 259.59 87.41
  C 254.36 86.50 253.82 89.64 253.40 94.00
  C 252.22 106.27 245.04 116.06 233.97 121.29"
/>
<path stroke="#db9699" vector-effect="non-scaling-stroke" d="
  M 58.46 200.08
  A 0.81 0.81 0.0 0 0 57.65 199.27
  L 52.69 199.27
  A 0.81 0.81 0.0 0 0 51.88 200.08
  L 51.88 206.44
  A 0.81 0.81 0.0 0 0 52.69 207.25
  L 57.65 207.25
  A 0.81 0.81 0.0 0 0 58.46 206.44
  L 58.46 200.08"
/>
<path stroke="#908f8f" vector-effect="non-scaling-stroke" d="
  M 345.9074 199.5431
  A 0.27 0.27 0.0 0 0 345.6351 199.2755
  L 339.9753 199.3248
  A 0.27 0.27 0.0 0 0 339.7077 199.5972
  L 339.7726 207.0369
  A 0.27 0.27 0.0 0 0 340.0449 207.3045
  L 345.7047 207.2552
  A 0.27 0.27 0.0 0 0 345.9723 206.9828
  L 345.9074 199.5431"
/>
<path stroke="#e59397" vector-effect="non-scaling-stroke" d="
  M 19.57 227.79
  L 41.24 227.55
  A 0.76 0.70 9.1 0 0 41.92 227.10
  Q 42.74 224.93 42.47 223.87
  Q 41.92 221.67 39.63 221.70
  L 19.87 221.95
  A 0.52 0.51 89.4 0 1 19.36 221.44
  C 19.25 218.43 18.36 209.46 20.41 207.31
  C 23.19 204.39 37.17 205.17 41.52 205.31
  A 0.81 0.71 -1.1 0 0 42.36 204.54
  L 41.99 200.30
  A 0.63 0.53 -0.8 0 0 41.39 199.81
  C 30.25 199.59 12.76 196.14 12.15 212.76
  Q 11.47 231.07 11.94 249.49
  A 1.16 1.08 -72.6 0 0 12.33 250.31
  Q 15.24 252.71 18.44 250.59
  A 1.06 0.96 76.6 0 0 18.88 249.79
  Q 19.51 239.00 19.08 228.30
  A 0.49 0.49 88.9 0 1 19.57 227.79"
/>
<path stroke="#908f8f" vector-effect="non-scaling-stroke" d="
  M 224.56 209.55
  Q 224.57 208.90 224.86 209.48
  L 235.02 229.63
  Q 235.96 231.50 238.04 231.50
  L 241.41 231.50
  Q 243.72 231.50 244.76 229.42
  L 254.65 209.68
  A 0.62 0.42 -67.1 0 1 255.22 209.31
  C 255.68 209.43 255.50 246.85 255.50 250.51
  A 0.64 0.61 -84.5 0 0 255.99 251.13
  Q 258.38 251.61 260.97 250.97
  A 0.65 0.64 83.2 0 0 261.46 250.34
  L 261.46 201.43
  A 0.67 0.63 -83.3 0 0 260.98 200.79
  Q 257.62 199.96 253.65 200.57
  A 1.55 1.54 -80.9 0 0 252.50 201.41
  L 240.46 225.21
  Q 239.79 226.52 239.13 225.21
  L 227.03 201.37
  A 1.20 1.12 83.7 0 0 226.33 200.77
  Q 222.52 199.60 218.51 200.99
  A 0.72 0.70 81.0 0 0 218.03 201.67
  L 218.01 250.21
  A 0.74 0.72 -80.5 0 0 218.49 250.90
  Q 221.14 251.82 223.84 250.93
  A 0.73 0.68 82.2 0 0 224.31 250.26
  L 224.56 209.55"
/>
<path stroke="#908f8f" vector-effect="non-scaling-stroke" d="
  M 323.52 246.01
  A 1.12 1.12 -80.5 0 1 322.77 244.95
  L 322.77 219.31
  A 0.53 0.52 -1.1 0 1 323.28 218.79
  L 330.97 218.47
  A 0.80 0.74 8.9 0 0 331.67 218.00
  Q 332.44 216.09 331.78 214.11
  A 0.78 0.70 79.8 0 0 331.11 213.59
  L 323.25 213.39
  A 0.48 0.47 0.0 0 1 322.78 212.93
  L 322.51 205.38
  A 0.51 0.49 -4.8 0 0 321.94 204.92
  L 317.30 205.50
  A 0.62 0.60 -2.9 0 0 316.76 206.07
  L 316.46 212.96
  A 0.53 0.50 -88.8 0 1 315.96 213.47
  L 309.51 213.50
  A 1.32 1.05 16.6 0 0 308.64 213.85
  Q 307.35 215.23 308.22 217.21
  A 0.94 0.83 -6.2 0 0 308.93 217.71
  L 315.96 218.56
  A 0.72 0.71 -86.0 0 1 316.58 219.28
  Q 316.35 231.97 316.62 244.02
  C 316.82 252.74 324.05 251.79 331.11 251.42
  A 0.73 0.70 6.2 0 0 331.76 250.92
  Q 332.30 249.07 331.91 247.12
  A 0.55 0.53 -9.7 0 0 331.30 246.71
  Q 327.15 247.29 323.52 246.01"
/>
<path stroke="#e59397" vector-effect="non-scaling-stroke" d="
  M 75.54 215.17
  C 75.25 212.33 71.03 213.06 69.46 213.89
  A 0.87 0.81 76.9 0 0 69.03 214.64
  L 69.01 250.46
  A 0.64 0.63 -83.1 0 0 69.49 251.08
  Q 72.15 251.71 74.72 250.90
  A 0.69 0.68 81.4 0 0 75.20 250.24
  L 75.57 221.42
  A 0.80 0.77 79.1 0 1 76.03 220.71
  C 80.86 218.47 88.48 216.26 91.54 221.52
  Q 92.76 223.60 92.75 229.14
  Q 92.74 239.58 92.75 250.07
  A 1.03 1.03 -81.1 0 0 93.46 251.05
  Q 96.08 251.93 98.74 250.81
  A 0.78 0.74 79.3 0 0 99.20 250.10
  Q 99.30 238.43 99.28 226.75
  C 99.25 212.47 86.63 210.15 76.22 215.54
  A 0.47 0.47 73.3 0 1 75.54 215.17"
/>
<path stroke="#e59397" vector-effect="non-scaling-stroke" d="
  M 154.82 234.29
  L 178.74 234.14
  A 0.58 0.55 3.4 0 0 179.31 233.66
  C 180.51 223.57 177.85 214.67 166.60 213.18
  C 149.63 210.93 146.77 223.56 147.77 237.24
  C 148.98 253.82 165.17 252.80 177.00 250.58
  A 1.35 1.17 9.7 0 0 177.79 250.10
  Q 179.19 248.20 178.21 245.94
  A 0.73 0.66 -13.4 0 0 177.49 245.54
  C 169.22 246.40 152.55 249.39 154.25 234.80
  A 0.59 0.58 2.8 0 1 154.82 234.29"
/>
<path stroke="#e59397" vector-effect="non-scaling-stroke" d="
  M 58.49 214.67
  A 1.37 1.37 0.0 0 0 57.12 213.30
  L 53.38 213.30
  A 1.37 1.37 0.0 0 0 52.01 214.67
  L 52.01 249.87
  A 1.37 1.37 0.0 0 0 53.38 251.24
  L 57.12 251.24
  A 1.37 1.37 0.0 0 0 58.49 249.87
  L 58.49 214.67"
/>
<path stroke="#e59397" vector-effect="non-scaling-stroke" d="
  M 139.05 218.49
  Q 142.84 217.77 141.21 213.95
  A 0.82 0.78 -9.1 0 0 140.51 213.47
  C 129.60 212.73 104.00 210.00 108.73 229.98
  C 109.08 231.50 110.10 232.41 110.80 233.78
  A 0.72 0.69 -37.7 0 1 110.68 234.58
  Q 105.80 239.93 111.45 244.46
  A 0.48 0.47 39.6 0 1 111.52 245.14
  C 104.14 253.59 107.84 262.25 118.15 264.42
  C 124.20 265.70 136.22 265.59 139.70 259.17
  C 143.71 251.77 138.98 247.31 132.11 245.09
  Q 124.99 242.79 117.67 241.30
  C 115.65 240.88 111.82 239.29 115.53 236.93
  A 1.15 1.05 35.4 0 1 116.44 236.82
  C 126.40 239.91 143.69 237.76 139.63 222.46
  Q 139.18 220.77 138.70 219.04
  A 0.45 0.44 -13.1 0 1 139.05 218.49"
/>
<path stroke="#e59397" vector-effect="non-scaling-stroke" d="
  M 195.19 215.78
  Q 194.13 215.83 194.08 214.37
  A 0.85 0.74 -80.8 0 0 193.63 213.65
  Q 190.99 212.51 188.28 213.97
  A 0.86 0.82 76.9 0 0 187.84 214.72
  Q 187.67 231.60 187.76 248.51
  Q 187.77 251.88 191.03 251.23
  Q 191.47 251.14 191.98 251.27
  Q 193.23 251.56 194.13 250.81
  A 1.20 0.95 74.3 0 0 194.49 249.95
  L 194.50 221.73
  A 1.08 1.08 78.4 0 1 195.15 220.74
  Q 200.00 218.67 205.41 217.75
  A 0.79 0.75 1.5 0 0 206.03 217.19
  Q 206.44 215.45 205.93 213.74
  A 0.74 0.73 -6.8 0 0 205.27 213.23
  C 203.12 213.13 197.35 213.35 195.95 215.26
  A 1.23 0.68 -63.4 0 1 195.19 215.78"
/>
<path stroke="#908f8f" vector-effect="non-scaling-stroke" d="
  M 302.45 227.40
  A 14.14 14.14 0.0 0 0 288.31 213.26
  L 284.97 213.26
  A 14.14 14.14 0.0 0 0 270.83 227.40
  L 270.83 237.32
  A 14.14 14.14 0.0 0 0 284.97 251.46
  L 288.31 251.46
  A 14.14 14.14 0.0 0 0 302.45 237.32
  L 302.45 227.40"
/>
<path stroke="#908f8f" vector-effect="non-scaling-stroke" d="
  M 387.3754 228.0063
  A 14.65 14.65 0.0 0 0 372.7766 213.3052
  L 369.8366 213.2950
  A 14.65 14.65 0.0 0 0 355.1356 227.8938
  L 355.1046 236.7537
  A 14.65 14.65 0.0 0 0 369.7034 251.4548
  L 372.6434 251.4650
  A 14.65 14.65 0.0 0 0 387.3444 236.8662
  L 387.3754 228.0063"
/>
<path stroke="#908f8f" vector-effect="non-scaling-stroke" d="
  M 396.00 213.80
  L 395.94 250.26
  A 0.76 0.73 -79.9 0 0 396.41 250.96
  Q 399.35 252.12 401.89 250.28
  A 1.06 0.91 74.2 0 0 402.27 249.47
  L 402.31 221.41
  A 0.82 0.80 77.2 0 1 402.76 220.68
  C 409.50 217.40 419.33 215.63 419.60 226.68
  Q 419.89 238.21 419.71 250.08
  A 1.13 1.07 -89.5 0 0 420.78 251.23
  L 424.51 251.22
  A 1.80 1.73 -90.0 0 0 426.23 249.43
  Q 426.27 239.09 426.15 228.50
  C 425.99 214.73 417.72 210.08 405.01 214.61
  Q 404.68 214.73 404.23 215.16
  Q 403.67 215.70 402.87 215.67
  A 0.74 0.59 82.8 0 1 402.29 215.10
  C 401.73 212.71 398.00 213.21 396.21 213.56
  A 0.26 0.24 -5.8 0 0 396.00 213.80"
/>
<path stroke="#908f8f" vector-effect="non-scaling-stroke" d="
  M 345.99 214.28
  A 0.78 0.78 0.0 0 0 345.21 213.50
  L 340.53 213.50
  A 0.78 0.78 0.0 0 0 339.75 214.28
  L 339.75 250.46
  A 0.78 0.78 0.0 0 0 340.53 251.24
  L 345.21 251.24
  A 0.78 0.78 0.0 0 0 345.99 250.46
  L 345.99 214.28"
/>
<path stroke="#e59397" vector-effect="non-scaling-stroke" d="
  M 172.75 228.75
  C 174.43 215.02 153.53 214.82 154.19 228.90
  A 0.54 0.53 88.9 0 0 154.72 229.42
  L 172.19 229.27
  A 0.59 0.57 -87.1 0 0 172.75 228.75"
/>
<path stroke="#e59397" vector-effect="non-scaling-stroke" d="
  M 133.5020 225.1061
  A 6.62 6.62 0.0 0 0 126.8016 218.5674
  L 121.3820 218.6336
  A 6.62 6.62 0.0 0 0 114.8434 225.3340
  L 114.8580 226.5339
  A 6.62 6.62 0.0 0 0 121.5584 233.0726
  L 126.9780 233.0064
  A 6.62 6.62 0.0 0 0 133.5166 226.3060
  L 133.5020 225.1061"
/>
<path stroke="#e59397" vector-effect="non-scaling-stroke" d="
  M 133.58 257.13
  C 137.88 249.39 122.42 247.49 117.97 246.79
  A 1.12 1.07 27.8 0 0 117.10 247.04
  C 112.94 250.65 112.61 258.06 118.76 259.47
  C 122.19 260.26 131.41 261.03 133.58 257.13"
/>
<path stroke="#908f8f" vector-effect="non-scaling-stroke" d="
  M 296.15 227.41
  A 8.85 8.85 0.0 0 0 287.30 218.56
  L 285.96 218.56
  A 8.85 8.85 0.0 0 0 277.11 227.41
  L 277.11 237.15
  A 8.85 8.85 0.0 0 0 285.96 246.00
  L 287.30 246.00
  A 8.85 8.85 0.0 0 0 296.15 237.15
  L 296.15 227.41"
/>
<path stroke="#908f8f" vector-effect="non-scaling-stroke" d="
  M 380.88 227.51
  A 8.94 8.94 0.0 0 0 371.94 218.57
  L 370.54 218.57
  A 8.94 8.94 0.0 0 0 361.60 227.51
  L 361.60 237.05
  A 8.94 8.94 0.0 0 0 370.54 245.99
  L 371.94 245.99
  A 8.94 8.94 0.0 0 0 380.88 237.05
  L 380.88 227.51"
/>
</g>
<path fill="#ffffff" d="
  M 0.00 0.00
  L 438.00 0.00
  L 438.00 269.00
  L 0.00 269.00
  L 0.00 0.00
  Z
  M 138.68 95.43
  Q 142.77 97.42 145.36 93.69
  A 1.73 1.43 66.9 0 0 145.63 92.77
  C 145.76 52.93 177.87 23.04 216.95 21.84
  C 254.28 20.69 287.99 47.12 292.15 84.92
  C 296.46 124.13 266.13 155.95 228.47 161.20
  C 225.95 161.55 219.00 161.16 217.49 161.97
  C 213.00 164.41 213.99 170.45 219.50 170.47
  C 264.74 170.63 304.99 133.44 301.77 87.24
  C 298.44 39.59 254.13 7.73 208.00 13.55
  C 168.05 18.59 137.25 50.76 136.37 91.65
  Q 136.32 94.28 138.68 95.43
  Z
  M 234.79 140.96
  C 203.13 150.42 168.45 129.43 165.22 95.62
  C 165.09 94.19 165.55 92.16 164.69 90.21
  C 163.02 86.40 158.55 86.86 156.41 90.07
  A 1.71 1.57 64.1 0 0 156.13 91.00
  C 155.81 132.49 196.71 159.76 235.61 149.77
  C 260.65 143.34 280.14 122.09 281.96 95.90
  C 284.44 60.17 254.85 31.60 219.30 31.58
  C 213.00 31.58 212.89 40.23 219.44 40.33
  C 248.79 40.74 273.92 63.04 272.96 93.35
  C 272.24 116.15 256.23 134.55 234.79 140.96
  Z
  M 233.97 121.29
  C 212.75 131.30 185.82 117.09 184.81 92.98
  C 184.12 76.47 196.01 63.30 211.95 59.71
  C 214.51 59.14 217.61 59.41 220.51 58.75
  Q 222.87 58.22 223.40 55.85
  C 224.49 50.89 220.52 50.07 216.61 50.26
  Q 199.89 51.09 188.11 62.37
  C 172.57 77.25 171.09 102.49 185.85 118.67
  C 197.22 131.13 213.92 136.12 230.13 132.07
  C 248.78 127.40 263.46 110.61 262.55 90.77
  Q 262.42 87.90 259.59 87.41
  C 254.36 86.50 253.82 89.64 253.40 94.00
  C 252.22 106.27 245.04 116.06 233.97 121.29
  Z
  M 58.46 200.08
  A 0.81 0.81 0.0 0 0 57.65 199.27
  L 52.69 199.27
  A 0.81 0.81 0.0 0 0 51.88 200.08
  L 51.88 206.44
  A 0.81 0.81 0.0 0 0 52.69 207.25
  L 57.65 207.25
  A 0.81 0.81 0.0 0 0 58.46 206.44
  L 58.46 200.08
  Z
  M 345.9074 199.5431
  A 0.27 0.27 0.0 0 0 345.6351 199.2755
  L 339.9753 199.3248
  A 0.27 0.27 0.0 0 0 339.7077 199.5972
  L 339.7726 207.0369
  A 0.27 0.27 0.0 0 0 340.0449 207.3045
  L 345.7047 207.2552
  A 0.27 0.27 0.0 0 0 345.9723 206.9828
  L 345.9074 199.5431
  Z
  M 19.57 227.79
  L 41.24 227.55
  A 0.76 0.70 9.1 0 0 41.92 227.10
  Q 42.74 224.93 42.47 223.87
  Q 41.92 221.67 39.63 221.70
  L 19.87 221.95
  A 0.52 0.51 89.4 0 1 19.36 221.44
  C 19.25 218.43 18.36 209.46 20.41 207.31
  C 23.19 204.39 37.17 205.17 41.52 205.31
  A 0.81 0.71 -1.1 0 0 42.36 204.54
  L 41.99 200.30
  A 0.63 0.53 -0.8 0 0 41.39 199.81
  C 30.25 199.59 12.76 196.14 12.15 212.76
  Q 11.47 231.07 11.94 249.49
  A 1.16 1.08 -72.6 0 0 12.33 250.31
  Q 15.24 252.71 18.44 250.59
  A 1.06 0.96 76.6 0 0 18.88 249.79
  Q 19.51 239.00 19.08 228.30
  A 0.49 0.49 88.9 0 1 19.57 227.79
  Z
  M 224.56 209.55
  Q 224.57 208.90 224.86 209.48
  L 235.02 229.63
  Q 235.96 231.50 238.04 231.50
  L 241.41 231.50
  Q 243.72 231.50 244.76 229.42
  L 254.65 209.68
  A 0.62 0.42 -67.1 0 1 255.22 209.31
  C 255.68 209.43 255.50 246.85 255.50 250.51
  A 0.64 0.61 -84.5 0 0 255.99 251.13
  Q 258.38 251.61 260.97 250.97
  A 0.65 0.64 83.2 0 0 261.46 250.34
  L 261.46 201.43
  A 0.67 0.63 -83.3 0 0 260.98 200.79
  Q 257.62 199.96 253.65 200.57
  A 1.55 1.54 -80.9 0 0 252.50 201.41
  L 240.46 225.21
  Q 239.79 226.52 239.13 225.21
  L 227.03 201.37
  A 1.20 1.12 83.7 0 0 226.33 200.77
  Q 222.52 199.60 218.51 200.99
  A 0.72 0.70 81.0 0 0 218.03 201.67
  L 218.01 250.21
  A 0.74 0.72 -80.5 0 0 218.49 250.90
  Q 221.14 251.82 223.84 250.93
  A 0.73 0.68 82.2 0 0 224.31 250.26
  L 224.56 209.55
  Z
  M 323.52 246.01
  A 1.12 1.12 -80.5 0 1 322.77 244.95
  L 322.77 219.31
  A 0.53 0.52 -1.1 0 1 323.28 218.79
  L 330.97 218.47
  A 0.80 0.74 8.9 0 0 331.67 218.00
  Q 332.44 216.09 331.78 214.11
  A 0.78 0.70 79.8 0 0 331.11 213.59
  L 323.25 213.39
  A 0.48 0.47 0.0 0 1 322.78 212.93
  L 322.51 205.38
  A 0.51 0.49 -4.8 0 0 321.94 204.92
  L 317.30 205.50
  A 0.62 0.60 -2.9 0 0 316.76 206.07
  L 316.46 212.96
  A 0.53 0.50 -88.8 0 1 315.96 213.47
  L 309.51 213.50
  A 1.32 1.05 16.6 0 0 308.64 213.85
  Q 307.35 215.23 308.22 217.21
  A 0.94 0.83 -6.2 0 0 308.93 217.71
  L 315.96 218.56
  A 0.72 0.71 -86.0 0 1 316.58 219.28
  Q 316.35 231.97 316.62 244.02
  C 316.82 252.74 324.05 251.79 331.11 251.42
  A 0.73 0.70 6.2 0 0 331.76 250.92
  Q 332.30 249.07 331.91 247.12
  A 0.55 0.53 -9.7 0 0 331.30 246.71
  Q 327.15 247.29 323.52 246.01
  Z
  M 75.54 215.17
  C 75.25 212.33 71.03 213.06 69.46 213.89
  A 0.87 0.81 76.9 0 0 69.03 214.64
  L 69.01 250.46
  A 0.64 0.63 -83.1 0 0 69.49 251.08
  Q 72.15 251.71 74.72 250.90
  A 0.69 0.68 81.4 0 0 75.20 250.24
  L 75.57 221.42
  A 0.80 0.77 79.1 0 1 76.03 220.71
  C 80.86 218.47 88.48 216.26 91.54 221.52
  Q 92.76 223.60 92.75 229.14
  Q 92.74 239.58 92.75 250.07
  A 1.03 1.03 -81.1 0 0 93.46 251.05
  Q 96.08 251.93 98.74 250.81
  A 0.78 0.74 79.3 0 0 99.20 250.10
  Q 99.30 238.43 99.28 226.75
  C 99.25 212.47 86.63 210.15 76.22 215.54
  A 0.47 0.47 73.3 0 1 75.54 215.17
  Z
  M 154.82 234.29
  L 178.74 234.14
  A 0.58 0.55 3.4 0 0 179.31 233.66
  C 180.51 223.57 177.85 214.67 166.60 213.18
  C 149.63 210.93 146.77 223.56 147.77 237.24
  C 148.98 253.82 165.17 252.80 177.00 250.58
  A 1.35 1.17 9.7 0 0 177.79 250.10
  Q 179.19 248.20 178.21 245.94
  A 0.73 0.66 -13.4 0 0 177.49 245.54
  C 169.22 246.40 152.55 249.39 154.25 234.80
  A 0.59 0.58 2.8 0 1 154.82 234.29
  Z
  M 58.49 214.67
  A 1.37 1.37 0.0 0 0 57.12 213.30
  L 53.38 213.30
  A 1.37 1.37 0.0 0 0 52.01 214.67
  L 52.01 249.87
  A 1.37 1.37 0.0 0 0 53.38 251.24
  L 57.12 251.24
  A 1.37 1.37 0.0 0 0 58.49 249.87
  L 58.49 214.67
  Z
  M 139.05 218.49
  Q 142.84 217.77 141.21 213.95
  A 0.82 0.78 -9.1 0 0 140.51 213.47
  C 129.60 212.73 104.00 210.00 108.73 229.98
  C 109.08 231.50 110.10 232.41 110.80 233.78
  A 0.72 0.69 -37.7 0 1 110.68 234.58
  Q 105.80 239.93 111.45 244.46
  A 0.48 0.47 39.6 0 1 111.52 245.14
  C 104.14 253.59 107.84 262.25 118.15 264.42
  C 124.20 265.70 136.22 265.59 139.70 259.17
  C 143.71 251.77 138.98 247.31 132.11 245.09
  Q 124.99 242.79 117.67 241.30
  C 115.65 240.88 111.82 239.29 115.53 236.93
  A 1.15 1.05 35.4 0 1 116.44 236.82
  C 126.40 239.91 143.69 237.76 139.63 222.46
  Q 139.18 220.77 138.70 219.04
  A 0.45 0.44 -13.1 0 1 139.05 218.49
  Z
  M 195.19 215.78
  Q 194.13 215.83 194.08 214.37
  A 0.85 0.74 -80.8 0 0 193.63 213.65
  Q 190.99 212.51 188.28 213.97
  A 0.86 0.82 76.9 0 0 187.84 214.72
  Q 187.67 231.60 187.76 248.51
  Q 187.77 251.88 191.03 251.23
  Q 191.47 251.14 191.98 251.27
  Q 193.23 251.56 194.13 250.81
  A 1.20 0.95 74.3 0 0 194.49 249.95
  L 194.50 221.73
  A 1.08 1.08 78.4 0 1 195.15 220.74
  Q 200.00 218.67 205.41 217.75
  A 0.79 0.75 1.5 0 0 206.03 217.19
  Q 206.44 215.45 205.93 213.74
  A 0.74 0.73 -6.8 0 0 205.27 213.23
  C 203.12 213.13 197.35 213.35 195.95 215.26
  A 1.23 0.68 -63.4 0 1 195.19 215.78
  Z
  M 302.45 227.40
  A 14.14 14.14 0.0 0 0 288.31 213.26
  L 284.97 213.26
  A 14.14 14.14 0.0 0 0 270.83 227.40
  L 270.83 237.32
  A 14.14 14.14 0.0 0 0 284.97 251.46
  L 288.31 251.46
  A 14.14 14.14 0.0 0 0 302.45 237.32
  L 302.45 227.40
  Z
  M 387.3754 228.0063
  A 14.65 14.65 0.0 0 0 372.7766 213.3052
  L 369.8366 213.2950
  A 14.65 14.65 0.0 0 0 355.1356 227.8938
  L 355.1046 236.7537
  A 14.65 14.65 0.0 0 0 369.7034 251.4548
  L 372.6434 251.4650
  A 14.65 14.65 0.0 0 0 387.3444 236.8662
  L 387.3754 228.0063
  Z
  M 396.00 213.80
  L 395.94 250.26
  A 0.76 0.73 -79.9 0 0 396.41 250.96
  Q 399.35 252.12 401.89 250.28
  A 1.06 0.91 74.2 0 0 402.27 249.47
  L 402.31 221.41
  A 0.82 0.80 77.2 0 1 402.76 220.68
  C 409.50 217.40 419.33 215.63 419.60 226.68
  Q 419.89 238.21 419.71 250.08
  A 1.13 1.07 -89.5 0 0 420.78 251.23
  L 424.51 251.22
  A 1.80 1.73 -90.0 0 0 426.23 249.43
  Q 426.27 239.09 426.15 228.50
  C 425.99 214.73 417.72 210.08 405.01 214.61
  Q 404.68 214.73 404.23 215.16
  Q 403.67 215.70 402.87 215.67
  A 0.74 0.59 82.8 0 1 402.29 215.10
  C 401.73 212.71 398.00 213.21 396.21 213.56
  A 0.26 0.24 -5.8 0 0 396.00 213.80
  Z
  M 345.99 214.28
  A 0.78 0.78 0.0 0 0 345.21 213.50
  L 340.53 213.50
  A 0.78 0.78 0.0 0 0 339.75 214.28
  L 339.75 250.46
  A 0.78 0.78 0.0 0 0 340.53 251.24
  L 345.21 251.24
  A 0.78 0.78 0.0 0 0 345.99 250.46
  L 345.99 214.28
  Z"
/>
<path fill="#d8232b" d="
  M 138.68 95.43
  Q 136.32 94.28 136.37 91.65
  C 137.25 50.76 168.05 18.59 208.00 13.55
  C 254.13 7.73 298.44 39.59 301.77 87.24
  C 304.99 133.44 264.74 170.63 219.50 170.47
  C 213.99 170.45 213.00 164.41 217.49 161.97
  C 219.00 161.16 225.95 161.55 228.47 161.20
  C 266.13 155.95 296.46 124.13 292.15 84.92
  C 287.99 47.12 254.28 20.69 216.95 21.84
  C 177.87 23.04 145.76 52.93 145.63 92.77
  A 1.73 1.43 66.9 0 1 145.36 93.69
  Q 142.77 97.42 138.68 95.43
  Z"
/>
<path fill="#201e1f" d="
  M 165.22 95.62
  C 168.45 129.43 203.13 150.42 234.79 140.96
  C 256.23 134.55 272.24 116.15 272.96 93.35
  C 273.92 63.04 248.79 40.74 219.44 40.33
  C 212.89 40.23 213.00 31.58 219.30 31.58
  C 254.85 31.60 284.44 60.17 281.96 95.90
  C 280.14 122.09 260.65 143.34 235.61 149.77
  C 196.71 159.76 155.81 132.49 156.13 91.00
  A 1.71 1.57 64.1 0 1 156.41 90.07
  C 158.55 86.86 163.02 86.40 164.69 90.21
  C 165.55 92.16 165.09 94.19 165.22 95.62
  Z"
/>
<path fill="#d8232b" d="
  M 184.81 92.98
  C 185.82 117.09 212.75 131.30 233.97 121.29
  C 245.04 116.06 252.22 106.27 253.40 94.00
  C 253.82 89.64 254.36 86.50 259.59 87.41
  Q 262.42 87.90 262.55 90.77
  C 263.46 110.61 248.78 127.40 230.13 132.07
  C 213.92 136.12 197.22 131.13 185.85 118.67
  C 171.09 102.49 172.57 77.25 188.11 62.37
  Q 199.89 51.09 216.61 50.26
  C 220.52 50.07 224.49 50.89 223.40 55.85
  Q 222.87 58.22 220.51 58.75
  C 217.61 59.41 214.51 59.14 211.95 59.71
  C 196.01 63.30 184.12 76.47 184.81 92.98
  Z"
/>
<rect fill="#b72c32" x="51.88" y="199.27" width="6.58" height="7.98" rx="0.81"/>
<rect fill="#201e1f" x="-3.10" y="-3.99" transform="translate(342.84,203.29) rotate(-0.5)" width="6.20" height="7.98" rx="0.27"/>
<path fill="#ca272e" d="
  M 19.08 228.30
  Q 19.51 239.00 18.88 249.79
  A 1.06 0.96 76.6 0 1 18.44 250.59
  Q 15.24 252.71 12.33 250.31
  A 1.16 1.08 -72.6 0 1 11.94 249.49
  Q 11.47 231.07 12.15 212.76
  C 12.76 196.14 30.25 199.59 41.39 199.81
  A 0.63 0.53 -0.8 0 1 41.99 200.30
  L 42.36 204.54
  A 0.81 0.71 -1.1 0 1 41.52 205.31
  C 37.17 205.17 23.19 204.39 20.41 207.31
  C 18.36 209.46 19.25 218.43 19.36 221.44
  A 0.52 0.51 89.4 0 0 19.87 221.95
  L 39.63 221.70
  Q 41.92 221.67 42.47 223.87
  Q 42.74 224.93 41.92 227.10
  A 0.76 0.70 9.1 0 1 41.24 227.55
  L 19.57 227.79
  A 0.49 0.49 88.9 0 0 19.08 228.30
  Z"
/>
<path fill="#201e1f" d="
  M 224.56 209.55
  L 224.31 250.26
  A 0.73 0.68 82.2 0 1 223.84 250.93
  Q 221.14 251.82 218.49 250.90
  A 0.74 0.72 -80.5 0 1 218.01 250.21
  L 218.03 201.67
  A 0.72 0.70 81.0 0 1 218.51 200.99
  Q 222.52 199.60 226.33 200.77
  A 1.20 1.12 83.7 0 1 227.03 201.37
  L 239.13 225.21
  Q 239.79 226.52 240.46 225.21
  L 252.50 201.41
  A 1.55 1.54 -80.9 0 1 253.65 200.57
  Q 257.62 199.96 260.98 200.79
  A 0.67 0.63 -83.3 0 1 261.46 201.43
  L 261.46 250.34
  A 0.65 0.64 83.2 0 1 260.97 250.97
  Q 258.38 251.61 255.99 251.13
  A 0.64 0.61 -84.5 0 1 255.50 250.51
  C 255.50 246.85 255.68 209.43 255.22 209.31
  A 0.62 0.42 -67.1 0 0 254.65 209.68
  L 244.76 229.42
  Q 243.72 231.50 241.41 231.50
  L 238.04 231.50
  Q 235.96 231.50 235.02 229.63
  L 224.86 209.48
  Q 224.57 208.90 224.56 209.55
  Z"
/>
<path fill="#201e1f" d="
  M 323.52 246.01
  Q 327.15 247.29 331.30 246.71
  A 0.55 0.53 -9.7 0 1 331.91 247.12
  Q 332.30 249.07 331.76 250.92
  A 0.73 0.70 6.2 0 1 331.11 251.42
  C 324.05 251.79 316.82 252.74 316.62 244.02
  Q 316.35 231.97 316.58 219.28
  A 0.72 0.71 -86.0 0 0 315.96 218.56
  L 308.93 217.71
  A 0.94 0.83 -6.2 0 1 308.22 217.21
  Q 307.35 215.23 308.64 213.85
  A 1.32 1.05 16.6 0 1 309.51 213.50
  L 315.96 213.47
  A 0.53 0.50 -88.8 0 0 316.46 212.96
  L 316.76 206.07
  A 0.62 0.60 -2.9 0 1 317.30 205.50
  L 321.94 204.92
  A 0.51 0.49 -4.8 0 1 322.51 205.38
  L 322.78 212.93
  A 0.48 0.47 0.0 0 0 323.25 213.39
  L 331.11 213.59
  A 0.78 0.70 79.8 0 1 331.78 214.11
  Q 332.44 216.09 331.67 218.00
  A 0.80 0.74 8.9 0 1 330.97 218.47
  L 323.28 218.79
  A 0.53 0.52 -1.1 0 0 322.77 219.31
  L 322.77 244.95
  A 1.12 1.12 -80.5 0 0 323.52 246.01
  Z"
/>
<path fill="#ca272e" d="
  M 75.54 215.17
  A 0.47 0.47 73.3 0 0 76.22 215.54
  C 86.63 210.15 99.25 212.47 99.28 226.75
  Q 99.30 238.43 99.20 250.10
  A 0.78 0.74 79.3 0 1 98.74 250.81
  Q 96.08 251.93 93.46 251.05
  A 1.03 1.03 -81.1 0 1 92.75 250.07
  Q 92.74 239.58 92.75 229.14
  Q 92.76 223.60 91.54 221.52
  C 88.48 216.26 80.86 218.47 76.03 220.71
  A 0.80 0.77 79.1 0 0 75.57 221.42
  L 75.20 250.24
  A 0.69 0.68 81.4 0 1 74.72 250.90
  Q 72.15 251.71 69.49 251.08
  A 0.64 0.63 -83.1 0 1 69.01 250.46
  L 69.03 214.64
  A 0.87 0.81 76.9 0 1 69.46 213.89
  C 71.03 213.06 75.25 212.33 75.54 215.17
  Z"
/>
<path fill="#ca272e" d="
  M 154.25 234.80
  C 152.55 249.39 169.22 246.40 177.49 245.54
  A 0.73 0.66 -13.4 0 1 178.21 245.94
  Q 179.19 248.20 177.79 250.10
  A 1.35 1.17 9.7 0 1 177.00 250.58
  C 165.17 252.80 148.98 253.82 147.77 237.24
  C 146.77 223.56 149.63 210.93 166.60 213.18
  C 177.85 214.67 180.51 223.57 179.31 233.66
  A 0.58 0.55 3.4 0 1 178.74 234.14
  L 154.82 234.29
  A 0.59 0.58 2.8 0 0 154.25 234.80
  Z
  M 172.75 228.75
  C 174.43 215.02 153.53 214.82 154.19 228.90
  A 0.54 0.53 88.9 0 0 154.72 229.42
  L 172.19 229.27
  A 0.59 0.57 -87.1 0 0 172.75 228.75
  Z"
/>
<rect fill="#ca272e" x="52.01" y="213.30" width="6.48" height="37.94" rx="1.37"/>
<path fill="#ca272e" d="
  M 138.70 219.04
  Q 139.18 220.77 139.63 222.46
  C 143.69 237.76 126.40 239.91 116.44 236.82
  A 1.15 1.05 35.4 0 0 115.53 236.93
  C 111.82 239.29 115.65 240.88 117.67 241.30
  Q 124.99 242.79 132.11 245.09
  C 138.98 247.31 143.71 251.77 139.70 259.17
  C 136.22 265.59 124.20 265.70 118.15 264.42
  C 107.84 262.25 104.14 253.59 111.52 245.14
  A 0.48 0.47 39.6 0 0 111.45 244.46
  Q 105.80 239.93 110.68 234.58
  A 0.72 0.69 -37.7 0 0 110.80 233.78
  C 110.10 232.41 109.08 231.50 108.73 229.98
  C 104.00 210.00 129.60 212.73 140.51 213.47
  A 0.82 0.78 -9.1 0 1 141.21 213.95
  Q 142.84 217.77 139.05 218.49
  A 0.45 0.44 -13.1 0 0 138.70 219.04
  Z
  M 133.5020 225.1061
  A 6.62 6.62 0.0 0 0 126.8016 218.5674
  L 121.3820 218.6336
  A 6.62 6.62 0.0 0 0 114.8434 225.3340
  L 114.8580 226.5339
  A 6.62 6.62 0.0 0 0 121.5584 233.0726
  L 126.9780 233.0064
  A 6.62 6.62 0.0 0 0 133.5166 226.3060
  L 133.5020 225.1061
  Z
  M 133.58 257.13
  C 137.88 249.39 122.42 247.49 117.97 246.79
  A 1.12 1.07 27.8 0 0 117.10 247.04
  C 112.94 250.65 112.61 258.06 118.76 259.47
  C 122.19 260.26 131.41 261.03 133.58 257.13
  Z"
/>
<path fill="#ca272e" d="
  M 195.95 215.26
  C 197.35 213.35 203.12 213.13 205.27 213.23
  A 0.74 0.73 -6.8 0 1 205.93 213.74
  Q 206.44 215.45 206.03 217.19
  A 0.79 0.75 1.5 0 1 205.41 217.75
  Q 200.00 218.67 195.15 220.74
  A 1.08 1.08 78.4 0 0 194.50 221.73
  L 194.49 249.95
  A 1.20 0.95 74.3 0 1 194.13 250.81
  Q 193.23 251.56 191.98 251.27
  Q 191.47 251.14 191.03 251.23
  Q 187.77 251.88 187.76 248.51
  Q 187.67 231.60 187.84 214.72
  A 0.86 0.82 76.9 0 1 188.28 213.97
  Q 190.99 212.51 193.63 213.65
  A 0.85 0.74 -80.8 0 1 194.08 214.37
  Q 194.13 215.83 195.19 215.78
  A 1.23 0.68 -63.4 0 0 195.95 215.26
  Z"
/>
<path fill="#201e1f" d="
  M 302.45 237.32
  A 14.14 14.14 0.0 0 1 288.31 251.46
  L 284.97 251.46
  A 14.14 14.14 0.0 0 1 270.83 237.32
  L 270.83 227.40
  A 14.14 14.14 0.0 0 1 284.97 213.26
  L 288.31 213.26
  A 14.14 14.14 0.0 0 1 302.45 227.40
  L 302.45 237.32
  Z
  M 296.15 227.41
  A 8.85 8.85 0.0 0 0 287.30 218.56
  L 285.96 218.56
  A 8.85 8.85 0.0 0 0 277.11 227.41
  L 277.11 237.15
  A 8.85 8.85 0.0 0 0 285.96 246.00
  L 287.30 246.00
  A 8.85 8.85 0.0 0 0 296.15 237.15
  L 296.15 227.41
  Z"
/>
<path fill="#201e1f" d="
  M 387.3444 236.8662
  A 14.65 14.65 0.0 0 1 372.6434 251.4650
  L 369.7034 251.4548
  A 14.65 14.65 0.0 0 1 355.1046 236.7537
  L 355.1356 227.8938
  A 14.65 14.65 0.0 0 1 369.8366 213.2950
  L 372.7766 213.3052
  A 14.65 14.65 0.0 0 1 387.3754 228.0063
  L 387.3444 236.8662
  Z
  M 380.88 227.51
  A 8.94 8.94 0.0 0 0 371.94 218.57
  L 370.54 218.57
  A 8.94 8.94 0.0 0 0 361.60 227.51
  L 361.60 237.05
  A 8.94 8.94 0.0 0 0 370.54 245.99
  L 371.94 245.99
  A 8.94 8.94 0.0 0 0 380.88 237.05
  L 380.88 227.51
  Z"
/>
<path fill="#201e1f" d="
  M 396.00 213.80
  A 0.26 0.24 -5.8 0 1 396.21 213.56
  C 398.00 213.21 401.73 212.71 402.29 215.10
  A 0.74 0.59 82.8 0 0 402.87 215.67
  Q 403.67 215.70 404.23 215.16
  Q 404.68 214.73 405.01 214.61
  C 417.72 210.08 425.99 214.73 426.15 228.50
  Q 426.27 239.09 426.23 249.43
  A 1.80 1.73 -90.0 0 1 424.51 251.22
  L 420.78 251.23
  A 1.13 1.07 -89.5 0 1 419.71 250.08
  Q 419.89 238.21 419.60 226.68
  C 419.33 215.63 409.50 217.40 402.76 220.68
  A 0.82 0.80 77.2 0 0 402.31 221.41
  L 402.27 249.47
  A 1.06 0.91 74.2 0 1 401.89 250.28
  Q 399.35 252.12 396.41 250.96
  A 0.76 0.73 -79.9 0 1 395.94 250.26
  L 396.00 213.80
  Z"
/>
<rect fill="#201e1f" x="339.75" y="213.50" width="6.24" height="37.74" rx="0.78"/>
<rect fill="#ffffff" x="-9.33" y="-7.22" transform="translate(124.18,225.82) rotate(-0.7)" width="18.66" height="14.44" rx="6.62"/>
<path fill="#ffffff" d="
  M 154.19 228.90
  C 153.53 214.82 174.43 215.02 172.75 228.75
  A 0.59 0.57 -87.1 0 1 172.19 229.27
  L 154.72 229.42
  A 0.54 0.53 88.9 0 1 154.19 228.90
  Z"
/>
<rect fill="#ffffff" x="277.11" y="218.56" width="19.04" height="27.44" rx="8.85"/>
<rect fill="#ffffff" x="361.60" y="218.57" width="19.28" height="27.42" rx="8.94"/>
<path fill="#ffffff" d="
  M 117.97 246.79
  C 122.42 247.49 137.88 249.39 133.58 257.13
  C 131.41 261.03 122.19 260.26 118.76 259.47
  C 112.61 258.06 112.94 250.65 117.10 247.04
  A 1.12 1.07 27.8 0 1 117.97 246.79
  Z"
/>
</svg>
