<?xml version="1.0" encoding="UTF-8" standalone="no"?>
<!DOCTYPE svg PUBLIC "-//W3C//DTD SVG 1.1//EN" "http://www.w3.org/Graphics/SVG/1.1/DTD/svg11.dtd">
<svg xmlns="http://www.w3.org/2000/svg" version="1.1" viewBox="0 0 840 369">
<g stroke-width="2.00" fill="none" stroke-linecap="butt">
<path stroke="#ee8e99" vector-effect="non-scaling-stroke" d="
  M 352.70 215.06
  Q 353.37 235.28 352.71 255.50
  Q 352.63 257.99 353.21 261.26
  A 0.59 0.59 85.4 0 0 353.79 261.76
  Q 383.77 261.71 413.77 261.78
  Q 428.12 261.81 433.76 261.33
  Q 476.50 257.62 506.15 225.88
  Q 507.06 224.90 507.05 226.24
  L 506.69 261.13
  A 0.61 0.61 -89.5 0 0 507.30 261.75
  L 581.08 261.75
  A 1.00 0.99 90.0 0 0 582.07 260.75
  L 581.93 215.13
  A 0.51 0.50 -0.6 0 1 582.43 214.63
  Q 616.57 213.74 640.44 191.94
  C 693.80 143.19 667.95 55.32 596.93 42.24
  Q 589.82 40.94 577.02 40.91
  Q 542.33 40.84 507.27 41.08
  A 0.58 0.57 -1.0 0 0 506.70 41.66
  L 507.05 76.77
  Q 507.06 77.85 506.32 77.06
  Q 479.51 48.19 441.11 42.21
  Q 433.77 41.06 421.18 40.98
  C 383.35 40.74 347.76 41.14 311.01 41.02
  A 0.85 0.84 15.6 0 0 310.26 41.44
  L 182.41 260.44
  Q 181.65 261.74 183.16 261.74
  L 269.21 261.72
  A 0.87 0.85 -74.7 0 0 269.95 261.29
  L 297.00 214.96
  A 0.90 0.87 -74.3 0 1 297.76 214.52
  L 352.18 214.56
  A 0.52 0.51 -0.6 0 1 352.70 215.06"
/>
<path stroke="#e08e97" vector-effect="non-scaling-stroke" d="
  M 623.52 247.99
  A 13.84 13.84 0.0 0 0 609.68 234.15
  A 13.84 13.84 0.0 0 0 595.84 247.99
  A 13.84 13.84 0.0 0 0 609.68 261.83
  A 13.84 13.84 0.0 0 0 623.52 247.99"
/>
<path stroke="#a6a8aa" vector-effect="non-scaling-stroke" d="
  M 288.56 321.69
  L 288.52 298.47
  A 0.59 0.48 89.5 0 0 288.03 297.88
  L 283.24 297.94
  A 0.60 0.49 89.5 0 0 282.76 298.54
  L 282.76 351.20
  A 0.51 0.50 90.0 0 0 283.26 351.71
  L 287.99 351.72
  A 0.51 0.50 -89.4 0 0 288.50 351.21
  Q 288.44 342.70 288.44 334.29
  C 288.44 321.71 305.57 316.87 306.28 331.61
  Q 306.74 341.28 306.44 351.03
  A 0.58 0.50 -88.9 0 0 306.93 351.62
  L 311.60 351.65
  A 0.59 0.49 -88.9 0 0 312.10 351.07
  Q 312.27 344.67 312.18 330.99
  C 312.10 317.23 298.29 313.31 288.92 321.85
  Q 288.56 322.19 288.56 321.69"
/>
<path stroke="#b0b0b2" vector-effect="non-scaling-stroke" d="
  M 800.48 300.93
  Q 801.65 299.38 804.13 301.09
  A 0.58 0.48 34.6 0 0 804.88 301.03
  C 806.32 298.93 799.51 297.46 798.34 301.35
  C 797.51 304.14 800.22 305.01 802.31 305.85
  C 805.67 307.21 802.28 310.24 799.68 308.51
  A 1.35 0.70 43.6 0 0 798.77 308.25
  Q 798.19 308.39 798.22 309.01
  A 1.16 0.87 20.3 0 0 798.72 309.78
  Q 801.06 311.36 803.84 310.18
  A 1.63 1.49 -83.5 0 0 804.56 309.55
  Q 807.35 304.87 801.56 303.75
  Q 798.76 303.21 800.48 300.93"
/>
<path stroke="#b0b0b2" vector-effect="non-scaling-stroke" d="
  M 810.52 302.81
  L 813.24 309.53
  Q 814.18 311.87 815.23 309.45
  L 818.05 302.91
  Q 818.28 302.38 818.30 302.97
  L 818.50 309.78
  A 0.84 0.67 -83.1 0 0 818.95 310.50
  C 820.52 311.11 820.03 303.62 819.98 300.04
  A 0.79 0.68 -82.2 0 0 819.52 299.33
  Q 818.77 299.07 818.02 299.35
  A 1.32 1.08 -84.8 0 0 817.35 300.03
  L 814.43 306.94
  Q 814.16 307.59 813.87 306.93
  L 810.92 300.00
  A 1.28 1.16 87.0 0 0 810.24 299.32
  Q 809.50 299.04 808.72 299.34
  A 0.78 0.69 80.9 0 0 808.27 300.05
  L 808.28 309.69
  A 1.05 0.74 -79.4 0 0 808.66 310.52
  C 810.69 311.79 809.65 302.62 810.20 302.49
  A 0.44 0.21 70.4 0 1 810.52 302.81"
/>
<path stroke="#a6a8aa" vector-effect="non-scaling-stroke" d="
  M 33.31 339.56
  L 57.47 339.52
  A 0.76 0.76 77.9 0 1 58.18 339.98
  L 63.09 351.24
  A 0.83 0.71 76.1 0 0 63.79 351.74
  L 69.62 351.54
  A 0.38 0.35 77.0 0 0 69.92 351.01
  L 49.11 301.84
  A 0.82 0.72 77.1 0 0 48.42 301.34
  L 43.39 301.30
  A 0.84 0.74 -76.8 0 0 42.68 301.80
  L 21.09 350.94
  A 0.56 0.54 -78.0 0 0 21.58 351.73
  L 27.14 351.67
  A 0.82 0.73 -77.4 0 0 27.82 351.18
  L 32.61 340.01
  A 0.77 0.76 11.8 0 1 33.31 339.56"
/>
<path stroke="#a6a8aa" vector-effect="non-scaling-stroke" d="
  M 101.08 322.68
  L 100.73 318.89
  A 0.63 0.59 86.3 0 0 100.13 318.32
  L 96.07 318.42
  A 0.62 0.50 89.1 0 0 95.59 319.04
  L 95.73 351.19
  A 0.55 0.48 88.9 0 0 96.22 351.73
  L 101.09 351.61
  A 0.55 0.48 88.3 0 0 101.56 351.04
  C 101.32 344.70 100.31 331.78 103.76 326.61
  C 106.64 322.29 116.37 320.19 117.61 327.68
  C 118.84 335.17 118.28 343.41 118.23 351.03
  A 0.59 0.49 90.0 0 0 118.72 351.62
  L 123.65 351.59
  A 0.59 0.49 88.9 0 0 124.13 350.99
  Q 123.97 343.66 123.84 336.38
  Q 123.74 330.15 125.08 327.42
  C 127.38 322.75 134.49 320.70 138.49 325.00
  C 141.83 328.59 140.58 345.61 140.69 351.09
  A 0.56 0.52 90.0 0 0 141.20 351.64
  L 145.71 351.73
  A 0.56 0.51 -89.4 0 0 146.22 351.18
  Q 146.32 342.02 146.22 332.88
  C 146.14 324.71 144.97 318.93 136.24 317.59
  Q 127.99 316.32 123.28 322.95
  A 0.34 0.34 45.5 0 1 122.72 322.94
  C 117.48 315.23 106.91 315.97 101.38 322.79
  Q 101.11 323.11 101.08 322.68"
/>
<path stroke="#a6a8aa" vector-effect="non-scaling-stroke" d="
  M 190.8267 334.3452
  A 18.10 17.80 -2.2 0 0 172.0567 317.2531
  A 18.10 17.80 -2.2 0 0 154.6533 335.7348
  A 18.10 17.80 -2.2 0 0 173.4233 352.8269
  A 18.10 17.80 -2.2 0 0 190.8267 334.3452"
/>
<path stroke="#a6a8aa" vector-effect="non-scaling-stroke" d="
  M 204.48 322.44
  L 204.59 319.72
  A 1.34 1.10 -90.0 0 0 203.45 318.32
  L 199.52 318.49
  A 0.58 0.50 89.0 0 0 199.04 319.07
  L 199.23 351.18
  A 0.55 0.48 88.9 0 0 199.72 351.72
  L 204.39 351.65
  A 0.57 0.53 -88.8 0 0 204.91 351.11
  C 205.34 342.01 200.79 321.08 216.99 323.35
  A 0.56 0.54 11.0 0 0 217.61 322.95
  Q 218.21 320.54 217.81 318.02
  A 0.65 0.63 -2.7 0 0 217.21 317.49
  Q 209.68 317.01 204.89 322.55
  Q 204.45 323.06 204.48 322.44"
/>
<path stroke="#a6a8aa" vector-effect="non-scaling-stroke" d="
  M 232.30 351.63
  C 239.36 354.18 248.10 352.32 252.76 346.16
  A 0.59 0.52 -51.9 0 0 252.71 345.39
  L 249.23 342.55
  A 0.56 0.49 -51.2 0 0 248.50 342.68
  C 241.76 350.98 230.08 348.10 227.50 337.96
  A 0.99 0.98 -7.1 0 1 228.46 336.74
  L 253.83 336.69
  A 0.53 0.52 -88.9 0 0 254.35 336.18
  C 254.74 324.92 248.48 316.41 236.43 317.60
  C 218.12 319.40 215.73 345.64 232.30 351.63"
/>
<path stroke="#a6a8aa" vector-effect="non-scaling-stroke" d="
  M 367.55 322.44
  L 367.47 318.82
  A 0.57 0.49 87.9 0 0 366.96 318.27
  L 362.28 318.48
  A 0.46 0.41 80.6 0 0 361.92 319.06
  C 362.09 319.76 362.26 320.09 362.26 320.84
  Q 362.23 335.86 362.27 350.96
  A 0.61 0.49 -89.5 0 0 362.75 351.57
  L 367.64 351.66
  A 0.59 0.51 -88.4 0 0 368.16 351.09
  C 368.44 344.71 367.18 336.79 368.52 330.76
  C 370.73 320.81 384.73 318.43 384.74 332.01
  Q 384.75 341.45 384.76 350.98
  A 0.60 0.49 90.0 0 0 385.25 351.58
  L 390.00 351.58
  A 0.61 0.49 -90.0 0 0 390.49 350.97
  Q 390.50 341.35 390.52 331.76
  C 390.53 323.21 403.02 318.51 406.49 327.33
  Q 407.22 329.19 407.21 333.40
  Q 407.19 342.16 406.96 350.97
  A 0.60 0.48 -89.4 0 0 407.44 351.58
  L 412.54 351.57
  A 0.58 0.48 89.4 0 0 413.02 350.98
  Q 412.90 340.09 412.66 329.28
  C 412.38 316.12 396.58 313.36 389.97 323.00
  A 0.35 0.35 -45.9 0 1 389.40 323.01
  Q 383.06 314.73 373.26 318.58
  C 371.12 319.42 369.83 321.21 367.97 322.63
  Q 367.56 322.95 367.55 322.44"
/>
<path stroke="#a6a8aa" vector-effect="non-scaling-stroke" d="
  M 444.76 348.06
  L 445.24 351.15
  A 0.62 0.58 85.4 0 0 445.82 351.68
  L 450.15 351.72
  A 0.51 0.47 89.4 0 0 450.63 351.19
  Q 450.13 341.78 450.24 330.01
  C 450.38 314.59 432.24 315.32 423.39 321.95
  A 0.57 0.47 -37.8 0 0 423.22 322.69
  L 426.13 326.05
  A 0.65 0.51 -38.6 0 0 426.92 326.04
  C 432.26 321.99 444.62 320.05 444.72 330.22
  A 0.52 0.52 -1.1 0 1 444.22 330.74
  C 436.46 331.07 418.52 331.02 421.67 344.86
  C 424.00 355.04 438.42 354.25 444.35 347.93
  Q 444.69 347.57 444.76 348.06"
/>
<path stroke="#a6a8aa" vector-effect="non-scaling-stroke" d="
  M 465.76 322.19
  L 465.47 318.80
  A 0.58 0.50 86.0 0 0 464.94 318.27
  L 460.73 318.47
  A 0.57 0.51 88.4 0 0 460.25 319.04
  L 460.48 351.19
  A 0.54 0.49 88.9 0 0 460.98 351.72
  L 465.56 351.65
  A 0.55 0.51 -89.4 0 0 466.07 351.11
  Q 466.11 337.33 466.33 333.53
  Q 466.95 323.21 476.29 322.82
  C 484.06 322.49 484.05 329.24 484.18 335.45
  Q 484.35 343.31 484.24 351.19
  A 0.52 0.49 90.0 0 0 484.73 351.71
  L 489.09 351.76
  A 0.52 0.52 -88.3 0 0 489.62 351.26
  Q 490.05 341.10 489.58 330.98
  C 489.24 323.78 486.74 318.33 479.25 317.51
  Q 471.72 316.68 466.16 322.33
  Q 465.80 322.69 465.76 322.19"
/>
<path stroke="#a6a8aa" vector-effect="non-scaling-stroke" d="
  M 525.26 322.45
  L 525.41 319.18
  A 0.67 0.54 -82.1 0 0 525.02 318.54
  Q 522.69 317.88 520.25 318.43
  A 0.63 0.58 83.9 0 0 519.79 319.05
  L 520.21 351.07
  A 0.58 0.51 89.9 0 0 520.71 351.64
  L 525.27 351.73
  A 0.53 0.47 89.9 0 0 525.75 351.19
  Q 525.65 342.67 525.91 334.21
  Q 526.28 322.14 538.07 323.28
  A 0.50 0.47 4.6 0 0 538.62 322.84
  L 538.91 318.18
  A 0.54 0.53 4.5 0 0 538.42 317.62
  Q 530.69 316.80 525.64 322.56
  Q 525.23 323.02 525.26 322.45"
/>
<path stroke="#a6a8aa" vector-effect="non-scaling-stroke" d="
  M 543.07 328.61
  C 539.13 341.49 547.07 353.66 561.27 352.52
  Q 569.30 351.88 573.70 346.12
  A 0.55 0.51 -52.6 0 0 573.63 345.37
  L 570.13 342.69
  A 0.61 0.53 -49.1 0 0 569.37 342.80
  C 562.66 350.14 550.43 348.72 548.45 337.88
  A 0.97 0.97 -5.2 0 1 549.40 336.74
  L 574.70 336.73
  A 0.54 0.53 -88.3 0 0 575.23 336.22
  C 575.53 329.12 572.96 321.80 566.19 318.79
  C 557.59 314.96 545.87 319.44 543.07 328.61"
/>
<path stroke="#a6a8aa" vector-effect="non-scaling-stroke" d="
  M 594.27 337.47
  C 600.76 337.93 603.36 345.53 595.79 347.04
  Q 589.13 348.37 585.12 343.50
  A 0.61 0.52 51.4 0 0 584.36 343.35
  L 580.57 346.16
  A 0.59 0.52 54.2 0 0 580.50 346.93
  C 585.30 353.66 598.36 354.93 604.05 348.86
  C 608.47 344.16 607.11 336.08 600.64 333.67
  C 596.70 332.20 590.32 331.67 587.57 328.43
  Q 585.82 326.37 588.27 324.73
  Q 595.15 320.12 600.47 326.19
  A 0.62 0.55 51.9 0 0 601.23 326.33
  L 604.93 323.85
  A 0.62 0.56 59.7 0 0 605.09 323.08
  C 600.71 314.66 583.72 315.88 581.73 325.48
  C 580.93 329.34 582.37 333.57 586.24 335.02
  Q 592.40 337.34 594.27 337.47"
/>
<path stroke="#a6a8aa" vector-effect="non-scaling-stroke" d="
  M 648.3511 335.6676
  A 18.07 17.76 1.8 0 0 630.8479 317.3488
  A 18.07 17.76 1.8 0 0 612.2289 334.5324
  A 18.07 17.76 1.8 0 0 629.7321 352.8512
  A 18.07 17.76 1.8 0 0 648.3511 335.6676"
/>
<path stroke="#a6a8aa" vector-effect="non-scaling-stroke" d="
  M 701.97 322.46
  L 701.61 318.92
  A 0.64 0.50 86.3 0 0 701.10 318.34
  L 696.85 318.36
  A 0.55 0.48 88.9 0 0 696.37 318.93
  Q 696.99 334.91 696.43 350.95
  A 0.60 0.47 -88.9 0 0 696.90 351.57
  L 701.76 351.59
  A 0.61 0.49 -90.0 0 0 702.25 350.98
  C 702.18 339.40 698.83 321.77 714.47 323.35
  A 0.55 0.45 3.9 0 0 715.07 322.92
  L 715.12 318.12
  A 0.64 0.53 2.9 0 0 714.53 317.58
  Q 707.04 316.98 702.38 322.55
  Q 702.02 322.97 701.97 322.46"
/>
<path stroke="#a6a8aa" vector-effect="non-scaling-stroke" d="
  M 718.97 338.96
  C 721.61 352.89 736.15 356.03 747.06 349.02
  Q 748.98 347.78 747.42 346.27
  L 744.90 343.83
  A 0.55 0.52 -44.6 0 0 744.16 343.84
  Q 739.11 348.66 733.18 346.96
  C 722.77 343.99 721.65 328.26 730.73 323.74
  Q 736.04 321.10 741.47 324.27
  C 742.43 324.83 743.00 326.01 744.28 326.42
  A 0.92 0.78 -54.3 0 0 745.12 326.21
  L 748.21 323.43
  A 1.02 1.00 -47.1 0 0 748.17 321.88
  C 734.29 311.09 715.56 321.04 718.97 338.96"
/>
<path stroke="#a6a8aa" vector-effect="non-scaling-stroke" d="
  M 761.75 319.39
  C 748.53 326.88 750.51 349.44 766.26 352.27
  Q 777.36 354.26 784.46 346.41
  A 0.58 0.48 -48.7 0 0 784.48 345.65
  L 781.12 342.68
  A 0.59 0.49 -48.0 0 0 780.37 342.79
  C 773.57 350.34 760.82 348.53 759.43 337.34
  A 0.45 0.44 86.6 0 1 759.87 336.84
  L 785.69 336.75
  A 0.54 0.52 1.7 0 0 786.23 336.26
  C 786.73 326.90 782.37 319.36 772.93 317.57
  Q 766.96 316.44 761.75 319.39"
/>
<path stroke="#a6a8aa" vector-effect="non-scaling-stroke" d="
  M 346.69 347.31
  L 346.83 351.11
  A 0.58 0.53 88.9 0 0 347.36 351.67
  L 351.55 351.65
  A 0.55 0.47 88.8 0 0 352.02 351.08
  Q 351.58 337.42 352.13 323.75
  Q 352.17 322.75 351.66 318.89
  A 0.65 0.51 84.0 0 0 351.10 318.32
  L 346.61 318.60
  A 0.62 0.49 86.9 0 0 346.16 319.24
  C 346.47 325.10 347.40 338.67 343.93 343.52
  C 339.55 349.63 328.65 348.61 328.34 339.67
  Q 328.11 333.10 328.28 318.98
  A 0.60 0.48 89.5 0 0 327.79 318.38
  L 323.11 318.42
  A 0.58 0.48 88.9 0 0 322.63 319.02
  Q 322.86 329.89 322.91 340.74
  C 322.98 353.55 337.64 356.21 345.36 348.32
  Q 345.60 348.08 345.78 347.46
  Q 345.90 347.05 346.19 346.90
  A 0.43 0.34 77.8 0 1 346.69 347.31"
/>
<path stroke="#a6a8aa" vector-effect="non-scaling-stroke" d="
  M 680.69 347.81
  L 680.84 351.11
  A 0.59 0.53 87.8 0 0 681.38 351.67
  L 685.89 351.64
  A 0.55 0.48 89.4 0 0 686.37 351.08
  L 686.19 319.06
  A 0.62 0.60 -85.0 0 0 685.70 318.45
  Q 683.19 318.01 680.76 318.59
  A 0.62 0.59 81.4 0 0 680.32 319.22
  C 680.74 325.08 681.58 337.98 678.57 343.06
  C 675.59 348.07 666.46 349.38 663.67 344.00
  C 661.13 339.08 662.50 324.89 662.44 318.90
  A 0.52 0.51 89.4 0 0 661.93 318.39
  L 657.34 318.41
  A 0.54 0.52 -90.0 0 0 656.83 318.94
  C 656.68 325.79 656.90 332.66 656.74 339.50
  C 656.41 353.39 671.88 356.55 680.35 347.67
  Q 680.67 347.34 680.69 347.81"
/>
<path stroke="#a6a8aa" vector-effect="non-scaling-stroke" d="
  M 803.75 347.95
  A 4.29 4.29 0.0 0 0 799.46 343.66
  A 4.29 4.29 0.0 0 0 795.17 347.95
  A 4.29 4.29 0.0 0 0 799.46 352.24
  A 4.29 4.29 0.0 0 0 803.75 347.95"
/>
<path stroke="#ee8e99" vector-effect="non-scaling-stroke" d="
  M 506.23 138.95
  C 500.37 103.92 474.18 76.57 439.36 70.08
  Q 432.36 68.78 419.44 68.77
  Q 373.60 68.72 327.87 68.76
  A 1.00 0.98 -74.4 0 0 327.02 69.25
  L 231.19 233.44
  Q 230.68 234.31 231.70 234.29
  L 253.15 233.94
  A 0.91 0.88 14.1 0 0 253.91 233.50
  L 280.90 187.36
  A 1.24 1.24 15.2 0 1 281.97 186.75
  L 380.00 186.77
  A 0.51 0.50 0.0 0 1 380.51 187.27
  L 380.68 233.17
  A 1.16 1.14 89.5 0 0 381.83 234.32
  Q 401.67 234.08 420.88 234.08
  C 455.50 234.09 482.86 218.13 499.09 187.23
  A 0.85 0.81 -75.4 0 1 499.82 186.78
  L 533.94 186.77
  A 0.85 0.84 -89.3 0 1 534.78 187.64
  Q 534.26 210.03 534.89 233.63
  A 0.40 0.39 -89.2 0 0 535.26 234.02
  Q 544.28 234.55 553.78 234.03
  A 0.53 0.51 88.9 0 0 554.27 233.50
  L 554.30 187.30
  A 0.52 0.51 -0.6 0 1 554.81 186.79
  C 577.54 186.63 597.78 189.48 617.30 174.82
  C 657.75 144.44 643.51 80.88 594.44 70.10
  Q 588.18 68.73 576.42 68.73
  Q 555.88 68.75 535.26 68.79
  A 0.50 0.50 0.0 0 0 534.76 69.29
  L 534.52 138.96
  A 0.50 0.49 -90.0 0 1 534.03 139.46
  L 506.81 139.44
  A 0.60 0.59 84.7 0 1 506.23 138.95"
/>
<path stroke="#ee8e99" vector-effect="non-scaling-stroke" d="
  M 579.65 115.99
  C 598.31 115.87 597.72 139.27 580.64 139.48
  Q 567.84 139.63 554.85 139.42
  A 0.49 0.49 0.6 0 0 554.35 139.91
  L 554.27 166.73
  A 0.51 0.51 90.0 0 0 554.78 167.24
  C 576.74 167.25 600.38 171.22 614.69 149.92
  C 630.06 127.04 618.11 96.38 591.53 89.43
  Q 586.90 88.22 578.83 88.25
  Q 566.78 88.31 555.00 88.16
  A 0.70 0.68 0.4 0 0 554.29 88.84
  L 554.35 115.40
  A 0.51 0.50 0.0 0 0 554.86 115.90
  Q 567.34 116.08 579.65 115.99"
/>
<path stroke="#ee8e99" vector-effect="non-scaling-stroke" d="
  M 352.18 139.20
  L 309.57 139.31
  A 0.93 0.84 13.0 0 0 308.81 139.73
  L 293.24 166.74
  A 0.29 0.29 -74.7 0 0 293.49 167.18
  L 380.24 167.20
  A 0.50 0.49 -90.0 0 0 380.73 166.70
  L 380.76 88.90
  A 0.51 0.50 90.0 0 0 380.26 88.39
  L 353.20 88.30
  A 0.49 0.48 88.9 0 0 352.72 88.81
  Q 353.25 113.76 352.70 138.69
  A 0.53 0.52 -0.0 0 1 352.18 139.20"
/>
<path stroke="#ee8e99" vector-effect="non-scaling-stroke" d="
  M 433.38 117.11
  C 467.56 125.88 468.59 174.79 434.82 185.18
  C 425.54 188.04 411.48 186.80 400.87 186.69
  A 0.50 0.49 0.6 0 0 400.36 187.18
  L 400.36 213.89
  A 0.53 0.52 0.6 0 0 400.88 214.41
  Q 422.24 214.68 426.75 214.51
  C 461.91 213.24 489.48 183.09 487.58 147.43
  C 486.03 118.46 464.23 95.19 436.69 89.47
  C 426.00 87.26 412.53 88.24 400.87 88.35
  A 0.51 0.50 -0.0 0 0 400.36 88.85
  L 400.35 115.39
  A 0.52 0.51 0.6 0 0 400.86 115.90
  C 411.11 116.06 424.52 114.83 433.38 117.11"
/>
<path stroke="#e08e97" vector-effect="non-scaling-stroke" d="
  M 620.88 248.03
  A 11.19 11.19 0.0 0 0 609.69 236.84
  A 11.19 11.19 0.0 0 0 598.50 248.03
  A 11.19 11.19 0.0 0 0 609.69 259.22
  A 11.19 11.19 0.0 0 0 620.88 248.03"
/>
<path stroke="#e08e97" vector-effect="non-scaling-stroke" d="
  M 611.35 250.04
  L 612.38 254.52
  A 1.59 0.50 83.7 0 0 612.76 255.39
  Q 613.78 256.40 615.12 255.86
  A 0.80 0.77 80.1 0 0 615.60 255.14
  Q 615.70 251.29 613.64 248.29
  A 0.58 0.58 51.2 0 1 613.72 247.54
  C 617.66 243.87 614.96 240.21 610.64 239.60
  Q 607.77 239.19 604.82 239.94
  A 0.67 0.65 -7.5 0 0 604.32 240.57
  L 604.28 254.94
  A 1.00 0.86 -75.8 0 0 604.68 255.74
  Q 605.68 256.39 606.45 255.64
  A 1.44 0.68 83.7 0 0 606.75 254.76
  L 607.08 249.41
  A 0.56 0.48 -83.8 0 1 607.65 248.88
  L 610.73 249.38
  A 0.88 0.72 86.3 0 1 611.35 250.04"
/>
<path stroke="#e08e97" vector-effect="non-scaling-stroke" d="
  M 612.1319 243.7095
  A 1.42 1.42 0.0 0 0 610.7169 242.2845
  L 608.1169 242.2755
  A 1.42 1.42 0.0 0 0 606.6919 243.6905
  L 606.6881 244.7905
  A 1.42 1.42 0.0 0 0 608.1031 246.2155
  L 610.7031 246.2245
  A 1.42 1.42 0.0 0 0 612.1281 244.8095
  L 612.1319 243.7095"
/>
<path stroke="#a6a8aa" vector-effect="non-scaling-stroke" d="
  M 35.49 333.22
  A 0.33 0.33 11.7 0 0 35.79 333.68
  L 55.21 333.82
  A 0.33 0.33 0.0 0 0 55.52 333.36
  L 45.97 309.97
  A 0.33 0.33 -44.7 0 0 45.36 309.97
  L 35.49 333.22"
/>
<path stroke="#a6a8aa" vector-effect="non-scaling-stroke" d="
  M 173.2800 347.4082
  A 12.38 11.81 87.5 0 0 184.5388 334.5249
  A 12.38 11.81 87.5 0 0 172.2000 322.6718
  A 12.38 11.81 87.5 0 0 160.9412 335.5551
  A 12.38 11.81 87.5 0 0 173.2800 347.4082"
/>
<path stroke="#a6a8aa" vector-effect="non-scaling-stroke" d="
  M 227.99 331.70
  C 234.37 331.76 240.82 332.34 247.33 331.80
  A 0.90 0.90 83.4 0 0 248.14 330.77
  C 246.44 319.45 230.55 320.46 227.62 331.21
  A 0.39 0.39 8.1 0 0 227.99 331.70"
/>
<path stroke="#a6a8aa" vector-effect="non-scaling-stroke" d="
  M 427.71 340.48
  C 424.41 349.84 445.21 351.89 444.62 336.39
  A 0.58 0.57 1.1 0 0 444.09 335.84
  C 439.94 335.51 429.46 335.52 427.71 340.48"
/>
<path stroke="#a6a8aa" vector-effect="non-scaling-stroke" d="
  M 549.00 331.71
  C 555.37 331.76 562.26 332.49 568.51 331.81
  A 0.52 0.52 -5.7 0 0 568.97 331.25
  C 568.07 319.62 550.38 320.28 548.58 331.21
  A 0.43 0.42 5.1 0 0 549.00 331.71"
/>
<path stroke="#a6a8aa" vector-effect="non-scaling-stroke" d="
  M 630.2568 347.4699
  A 12.37 11.85 90.2 0 0 642.1499 335.1414
  A 12.37 11.85 90.2 0 0 630.3432 322.7301
  A 12.37 11.85 90.2 0 0 618.4501 335.0586
  A 12.37 11.85 90.2 0 0 630.2568 347.4699"
/>
<path stroke="#a6a8aa" vector-effect="non-scaling-stroke" d="
  M 779.80 331.37
  C 779.45 319.89 761.45 319.74 759.42 331.43
  A 0.43 0.42 -85.3 0 0 759.83 331.93
  L 779.31 331.89
  A 0.50 0.49 88.9 0 0 779.80 331.37"
/>
</g>
<path fill="#ffffff" d="
  M 0.00 0.00
  L 840.00 0.00
  L 840.00 369.00
  L 0.00 369.00
  L 0.00 0.00
  Z
  M 352.70 215.06
  Q 353.37 235.28 352.71 255.50
  Q 352.63 257.99 353.21 261.26
  A 0.59 0.59 85.4 0 0 353.79 261.76
  Q 383.77 261.71 413.77 261.78
  Q 428.12 261.81 433.76 261.33
  Q 476.50 257.62 506.15 225.88
  Q 507.06 224.90 507.05 226.24
  L 506.69 261.13
  A 0.61 0.61 -89.5 0 0 507.30 261.75
  L 581.08 261.75
  A 1.00 0.99 90.0 0 0 582.07 260.75
  L 581.93 215.13
  A 0.51 0.50 -0.6 0 1 582.43 214.63
  Q 616.57 213.74 640.44 191.94
  C 693.80 143.19 667.95 55.32 596.93 42.24
  Q 589.82 40.94 577.02 40.91
  Q 542.33 40.84 507.27 41.08
  A 0.58 0.57 -1.0 0 0 506.70 41.66
  L 507.05 76.77
  Q 507.06 77.85 506.32 77.06
  Q 479.51 48.19 441.11 42.21
  Q 433.77 41.06 421.18 40.98
  C 383.35 40.74 347.76 41.14 311.01 41.02
  A 0.85 0.84 15.6 0 0 310.26 41.44
  L 182.41 260.44
  Q 181.65 261.74 183.16 261.74
  L 269.21 261.72
  A 0.87 0.85 -74.7 0 0 269.95 261.29
  L 297.00 214.96
  A 0.90 0.87 -74.3 0 1 297.76 214.52
  L 352.18 214.56
  A 0.52 0.51 -0.6 0 1 352.70 215.06
  Z
  M 623.52 247.99
  A 13.84 13.84 0.0 0 0 609.68 234.15
  A 13.84 13.84 0.0 0 0 595.84 247.99
  A 13.84 13.84 0.0 0 0 609.68 261.83
  A 13.84 13.84 0.0 0 0 623.52 247.99
  Z
  M 288.56 321.69
  L 288.52 298.47
  A 0.59 0.48 89.5 0 0 288.03 297.88
  L 283.24 297.94
  A 0.60 0.49 89.5 0 0 282.76 298.54
  L 282.76 351.20
  A 0.51 0.50 90.0 0 0 283.26 351.71
  L 287.99 351.72
  A 0.51 0.50 -89.4 0 0 288.50 351.21
  Q 288.44 342.70 288.44 334.29
  C 288.44 321.71 305.57 316.87 306.28 331.61
  Q 306.74 341.28 306.44 351.03
  A 0.58 0.50 -88.9 0 0 306.93 351.62
  L 311.60 351.65
  A 0.59 0.49 -88.9 0 0 312.10 351.07
  Q 312.27 344.67 312.18 330.99
  C 312.10 317.23 298.29 313.31 288.92 321.85
  Q 288.56 322.19 288.56 321.69
  Z
  M 800.48 300.93
  Q 801.65 299.38 804.13 301.09
  A 0.58 0.48 34.6 0 0 804.88 301.03
  C 806.32 298.93 799.51 297.46 798.34 301.35
  C 797.51 304.14 800.22 305.01 802.31 305.85
  C 805.67 307.21 802.28 310.24 799.68 308.51
  A 1.35 0.70 43.6 0 0 798.77 308.25
  Q 798.19 308.39 798.22 309.01
  A 1.16 0.87 20.3 0 0 798.72 309.78
  Q 801.06 311.36 803.84 310.18
  A 1.63 1.49 -83.5 0 0 804.56 309.55
  Q 807.35 304.87 801.56 303.75
  Q 798.76 303.21 800.48 300.93
  Z
  M 810.52 302.81
  L 813.24 309.53
  Q 814.18 311.87 815.23 309.45
  L 818.05 302.91
  Q 818.28 302.38 818.30 302.97
  L 818.50 309.78
  A 0.84 0.67 -83.1 0 0 818.95 310.50
  C 820.52 311.11 820.03 303.62 819.98 300.04
  A 0.79 0.68 -82.2 0 0 819.52 299.33
  Q 818.77 299.07 818.02 299.35
  A 1.32 1.08 -84.8 0 0 817.35 300.03
  L 814.43 306.94
  Q 814.16 307.59 813.87 306.93
  L 810.92 300.00
  A 1.28 1.16 87.0 0 0 810.24 299.32
  Q 809.50 299.04 808.72 299.34
  A 0.78 0.69 80.9 0 0 808.27 300.05
  L 808.28 309.69
  A 1.05 0.74 -79.4 0 0 808.66 310.52
  C 810.69 311.79 809.65 302.62 810.20 302.49
  A 0.44 0.21 70.4 0 1 810.52 302.81
  Z
  M 33.31 339.56
  L 57.47 339.52
  A 0.76 0.76 77.9 0 1 58.18 339.98
  L 63.09 351.24
  A 0.83 0.71 76.1 0 0 63.79 351.74
  L 69.62 351.54
  A 0.38 0.35 77.0 0 0 69.92 351.01
  L 49.11 301.84
  A 0.82 0.72 77.1 0 0 48.42 301.34
  L 43.39 301.30
  A 0.84 0.74 -76.8 0 0 42.68 301.80
  L 21.09 350.94
  A 0.56 0.54 -78.0 0 0 21.58 351.73
  L 27.14 351.67
  A 0.82 0.73 -77.4 0 0 27.82 351.18
  L 32.61 340.01
  A 0.77 0.76 11.8 0 1 33.31 339.56
  Z
  M 101.08 322.68
  L 100.73 318.89
  A 0.63 0.59 86.3 0 0 100.13 318.32
  L 96.07 318.42
  A 0.62 0.50 89.1 0 0 95.59 319.04
  L 95.73 351.19
  A 0.55 0.48 88.9 0 0 96.22 351.73
  L 101.09 351.61
  A 0.55 0.48 88.3 0 0 101.56 351.04
  C 101.32 344.70 100.31 331.78 103.76 326.61
  C 106.64 322.29 116.37 320.19 117.61 327.68
  C 118.84 335.17 118.28 343.41 118.23 351.03
  A 0.59 0.49 90.0 0 0 118.72 351.62
  L 123.65 351.59
  A 0.59 0.49 88.9 0 0 124.13 350.99
  Q 123.97 343.66 123.84 336.38
  Q 123.74 330.15 125.08 327.42
  C 127.38 322.75 134.49 320.70 138.49 325.00
  C 141.83 328.59 140.58 345.61 140.69 351.09
  A 0.56 0.52 90.0 0 0 141.20 351.64
  L 145.71 351.73
  A 0.56 0.51 -89.4 0 0 146.22 351.18
  Q 146.32 342.02 146.22 332.88
  C 146.14 324.71 144.97 318.93 136.24 317.59
  Q 127.99 316.32 123.28 322.95
  A 0.34 0.34 45.5 0 1 122.72 322.94
  C 117.48 315.23 106.91 315.97 101.38 322.79
  Q 101.11 323.11 101.08 322.68
  Z
  M 190.8267 334.3452
  A 18.10 17.80 -2.2 0 0 172.0567 317.2531
  A 18.10 17.80 -2.2 0 0 154.6533 335.7348
  A 18.10 17.80 -2.2 0 0 173.4233 352.8269
  A 18.10 17.80 -2.2 0 0 190.8267 334.3452
  Z
  M 204.48 322.44
  L 204.59 319.72
  A 1.34 1.10 -90.0 0 0 203.45 318.32
  L 199.52 318.49
  A 0.58 0.50 89.0 0 0 199.04 319.07
  L 199.23 351.18
  A 0.55 0.48 88.9 0 0 199.72 351.72
  L 204.39 351.65
  A 0.57 0.53 -88.8 0 0 204.91 351.11
  C 205.34 342.01 200.79 321.08 216.99 323.35
  A 0.56 0.54 11.0 0 0 217.61 322.95
  Q 218.21 320.54 217.81 318.02
  A 0.65 0.63 -2.7 0 0 217.21 317.49
  Q 209.68 317.01 204.89 322.55
  Q 204.45 323.06 204.48 322.44
  Z
  M 232.30 351.63
  C 239.36 354.18 248.10 352.32 252.76 346.16
  A 0.59 0.52 -51.9 0 0 252.71 345.39
  L 249.23 342.55
  A 0.56 0.49 -51.2 0 0 248.50 342.68
  C 241.76 350.98 230.08 348.10 227.50 337.96
  A 0.99 0.98 -7.1 0 1 228.46 336.74
  L 253.83 336.69
  A 0.53 0.52 -88.9 0 0 254.35 336.18
  C 254.74 324.92 248.48 316.41 236.43 317.60
  C 218.12 319.40 215.73 345.64 232.30 351.63
  Z
  M 367.55 322.44
  L 367.47 318.82
  A 0.57 0.49 87.9 0 0 366.96 318.27
  L 362.28 318.48
  A 0.46 0.41 80.6 0 0 361.92 319.06
  C 362.09 319.76 362.26 320.09 362.26 320.84
  Q 362.23 335.86 362.27 350.96
  A 0.61 0.49 -89.5 0 0 362.75 351.57
  L 367.64 351.66
  A 0.59 0.51 -88.4 0 0 368.16 351.09
  C 368.44 344.71 367.18 336.79 368.52 330.76
  C 370.73 320.81 384.73 318.43 384.74 332.01
  Q 384.75 341.45 384.76 350.98
  A 0.60 0.49 90.0 0 0 385.25 351.58
  L 390.00 351.58
  A 0.61 0.49 -90.0 0 0 390.49 350.97
  Q 390.50 341.35 390.52 331.76
  C 390.53 323.21 403.02 318.51 406.49 327.33
  Q 407.22 329.19 407.21 333.40
  Q 407.19 342.16 406.96 350.97
  A 0.60 0.48 -89.4 0 0 407.44 351.58
  L 412.54 351.57
  A 0.58 0.48 89.4 0 0 413.02 350.98
  Q 412.90 340.09 412.66 329.28
  C 412.38 316.12 396.58 313.36 389.97 323.00
  A 0.35 0.35 -45.9 0 1 389.40 323.01
  Q 383.06 314.73 373.26 318.58
  C 371.12 319.42 369.83 321.21 367.97 322.63
  Q 367.56 322.95 367.55 322.44
  Z
  M 444.76 348.06
  L 445.24 351.15
  A 0.62 0.58 85.4 0 0 445.82 351.68
  L 450.15 351.72
  A 0.51 0.47 89.4 0 0 450.63 351.19
  Q 450.13 341.78 450.24 330.01
  C 450.38 314.59 432.24 315.32 423.39 321.95
  A 0.57 0.47 -37.8 0 0 423.22 322.69
  L 426.13 326.05
  A 0.65 0.51 -38.6 0 0 426.92 326.04
  C 432.26 321.99 444.62 320.05 444.72 330.22
  A 0.52 0.52 -1.1 0 1 444.22 330.74
  C 436.46 331.07 418.52 331.02 421.67 344.86
  C 424.00 355.04 438.42 354.25 444.35 347.93
  Q 444.69 347.57 444.76 348.06
  Z
  M 465.76 322.19
  L 465.47 318.80
  A 0.58 0.50 86.0 0 0 464.94 318.27
  L 460.73 318.47
  A 0.57 0.51 88.4 0 0 460.25 319.04
  L 460.48 351.19
  A 0.54 0.49 88.9 0 0 460.98 351.72
  L 465.56 351.65
  A 0.55 0.51 -89.4 0 0 466.07 351.11
  Q 466.11 337.33 466.33 333.53
  Q 466.95 323.21 476.29 322.82
  C 484.06 322.49 484.05 329.24 484.18 335.45
  Q 484.35 343.31 484.24 351.19
  A 0.52 0.49 90.0 0 0 484.73 351.71
  L 489.09 351.76
  A 0.52 0.52 -88.3 0 0 489.62 351.26
  Q 490.05 341.10 489.58 330.98
  C 489.24 323.78 486.74 318.33 479.25 317.51
  Q 471.72 316.68 466.16 322.33
  Q 465.80 322.69 465.76 322.19
  Z
  M 525.26 322.45
  L 525.41 319.18
  A 0.67 0.54 -82.1 0 0 525.02 318.54
  Q 522.69 317.88 520.25 318.43
  A 0.63 0.58 83.9 0 0 519.79 319.05
  L 520.21 351.07
  A 0.58 0.51 89.9 0 0 520.71 351.64
  L 525.27 351.73
  A 0.53 0.47 89.9 0 0 525.75 351.19
  Q 525.65 342.67 525.91 334.21
  Q 526.28 322.14 538.07 323.28
  A 0.50 0.47 4.6 0 0 538.62 322.84
  L 538.91 318.18
  A 0.54 0.53 4.5 0 0 538.42 317.62
  Q 530.69 316.80 525.64 322.56
  Q 525.23 323.02 525.26 322.45
  Z
  M 543.07 328.61
  C 539.13 341.49 547.07 353.66 561.27 352.52
  Q 569.30 351.88 573.70 346.12
  A 0.55 0.51 -52.6 0 0 573.63 345.37
  L 570.13 342.69
  A 0.61 0.53 -49.1 0 0 569.37 342.80
  C 562.66 350.14 550.43 348.72 548.45 337.88
  A 0.97 0.97 -5.2 0 1 549.40 336.74
  L 574.70 336.73
  A 0.54 0.53 -88.3 0 0 575.23 336.22
  C 575.53 329.12 572.96 321.80 566.19 318.79
  C 557.59 314.96 545.87 319.44 543.07 328.61
  Z
  M 594.27 337.47
  C 600.76 337.93 603.36 345.53 595.79 347.04
  Q 589.13 348.37 585.12 343.50
  A 0.61 0.52 51.4 0 0 584.36 343.35
  L 580.57 346.16
  A 0.59 0.52 54.2 0 0 580.50 346.93
  C 585.30 353.66 598.36 354.93 604.05 348.86
  C 608.47 344.16 607.11 336.08 600.64 333.67
  C 596.70 332.20 590.32 331.67 587.57 328.43
  Q 585.82 326.37 588.27 324.73
  Q 595.15 320.12 600.47 326.19
  A 0.62 0.55 51.9 0 0 601.23 326.33
  L 604.93 323.85
  A 0.62 0.56 59.7 0 0 605.09 323.08
  C 600.71 314.66 583.72 315.88 581.73 325.48
  C 580.93 329.34 582.37 333.57 586.24 335.02
  Q 592.40 337.34 594.27 337.47
  Z
  M 648.3511 335.6676
  A 18.07 17.76 1.8 0 0 630.8479 317.3488
  A 18.07 17.76 1.8 0 0 612.2289 334.5324
  A 18.07 17.76 1.8 0 0 629.7321 352.8512
  A 18.07 17.76 1.8 0 0 648.3511 335.6676
  Z
  M 701.97 322.46
  L 701.61 318.92
  A 0.64 0.50 86.3 0 0 701.10 318.34
  L 696.85 318.36
  A 0.55 0.48 88.9 0 0 696.37 318.93
  Q 696.99 334.91 696.43 350.95
  A 0.60 0.47 -88.9 0 0 696.90 351.57
  L 701.76 351.59
  A 0.61 0.49 -90.0 0 0 702.25 350.98
  C 702.18 339.40 698.83 321.77 714.47 323.35
  A 0.55 0.45 3.9 0 0 715.07 322.92
  L 715.12 318.12
  A 0.64 0.53 2.9 0 0 714.53 317.58
  Q 707.04 316.98 702.38 322.55
  Q 702.02 322.97 701.97 322.46
  Z
  M 718.97 338.96
  C 721.61 352.89 736.15 356.03 747.06 349.02
  Q 748.98 347.78 747.42 346.27
  L 744.90 343.83
  A 0.55 0.52 -44.6 0 0 744.16 343.84
  Q 739.11 348.66 733.18 346.96
  C 722.77 343.99 721.65 328.26 730.73 323.74
  Q 736.04 321.10 741.47 324.27
  C 742.43 324.83 743.00 326.01 744.28 326.42
  A 0.92 0.78 -54.3 0 0 745.12 326.21
  L 748.21 323.43
  A 1.02 1.00 -47.1 0 0 748.17 321.88
  C 734.29 311.09 715.56 321.04 718.97 338.96
  Z
  M 761.75 319.39
  C 748.53 326.88 750.51 349.44 766.26 352.27
  Q 777.36 354.26 784.46 346.41
  A 0.58 0.48 -48.7 0 0 784.48 345.65
  L 781.12 342.68
  A 0.59 0.49 -48.0 0 0 780.37 342.79
  C 773.57 350.34 760.82 348.53 759.43 337.34
  A 0.45 0.44 86.6 0 1 759.87 336.84
  L 785.69 336.75
  A 0.54 0.52 1.7 0 0 786.23 336.26
  C 786.73 326.90 782.37 319.36 772.93 317.57
  Q 766.96 316.44 761.75 319.39
  Z
  M 346.69 347.31
  L 346.83 351.11
  A 0.58 0.53 88.9 0 0 347.36 351.67
  L 351.55 351.65
  A 0.55 0.47 88.8 0 0 352.02 351.08
  Q 351.58 337.42 352.13 323.75
  Q 352.17 322.75 351.66 318.89
  A 0.65 0.51 84.0 0 0 351.10 318.32
  L 346.61 318.60
  A 0.62 0.49 86.9 0 0 346.16 319.24
  C 346.47 325.10 347.40 338.67 343.93 343.52
  C 339.55 349.63 328.65 348.61 328.34 339.67
  Q 328.11 333.10 328.28 318.98
  A 0.60 0.48 89.5 0 0 327.79 318.38
  L 323.11 318.42
  A 0.58 0.48 88.9 0 0 322.63 319.02
  Q 322.86 329.89 322.91 340.74
  C 322.98 353.55 337.64 356.21 345.36 348.32
  Q 345.60 348.08 345.78 347.46
  Q 345.90 347.05 346.19 346.90
  A 0.43 0.34 77.8 0 1 346.69 347.31
  Z
  M 680.69 347.81
  L 680.84 351.11
  A 0.59 0.53 87.8 0 0 681.38 351.67
  L 685.89 351.64
  A 0.55 0.48 89.4 0 0 686.37 351.08
  L 686.19 319.06
  A 0.62 0.60 -85.0 0 0 685.70 318.45
  Q 683.19 318.01 680.76 318.59
  A 0.62 0.59 81.4 0 0 680.32 319.22
  C 680.74 325.08 681.58 337.98 678.57 343.06
  C 675.59 348.07 666.46 349.38 663.67 344.00
  C 661.13 339.08 662.50 324.89 662.44 318.90
  A 0.52 0.51 89.4 0 0 661.93 318.39
  L 657.34 318.41
  A 0.54 0.52 -90.0 0 0 656.83 318.94
  C 656.68 325.79 656.90 332.66 656.74 339.50
  C 656.41 353.39 671.88 356.55 680.35 347.67
  Q 680.67 347.34 680.69 347.81
  Z
  M 803.75 347.95
  A 4.29 4.29 0.0 0 0 799.46 343.66
  A 4.29 4.29 0.0 0 0 795.17 347.95
  A 4.29 4.29 0.0 0 0 799.46 352.24
  A 4.29 4.29 0.0 0 0 803.75 347.95
  Z"
/>
<path fill="#dd1d32" d="
  M 352.18 214.56
  L 297.76 214.52
  A 0.90 0.87 -74.3 0 0 297.00 214.96
  L 269.95 261.29
  A 0.87 0.85 -74.7 0 1 269.21 261.72
  L 183.16 261.74
  Q 181.65 261.74 182.41 260.44
  L 310.26 41.44
  A 0.85 0.84 15.6 0 1 311.01 41.02
  C 347.76 41.14 383.35 40.74 421.18 40.98
  Q 433.77 41.06 441.11 42.21
  Q 479.51 48.19 506.32 77.06
  Q 507.06 77.85 507.05 76.77
  L 506.70 41.66
  A 0.58 0.57 -1.0 0 1 507.27 41.08
  Q 542.33 40.84 577.02 40.91
  Q 589.82 40.94 596.93 42.24
  C 667.95 55.32 693.80 143.19 640.44 191.94
  Q 616.57 213.74 582.43 214.63
  A 0.51 0.50 -0.6 0 0 581.93 215.13
  L 582.07 260.75
  A 1.00 0.99 -90.0 0 1 581.08 261.75
  L 507.30 261.75
  A 0.61 0.61 -89.5 0 1 506.69 261.13
  L 507.05 226.24
  Q 507.06 224.90 506.15 225.88
  Q 476.50 257.62 433.76 261.33
  Q 428.12 261.81 413.77 261.78
  Q 383.77 261.71 353.79 261.76
  A 0.59 0.59 85.4 0 1 353.21 261.26
  Q 352.63 257.99 352.71 255.50
  Q 353.37 235.28 352.70 215.06
  A 0.52 0.51 -0.6 0 0 352.18 214.56
  Z
  M 506.23 138.95
  C 500.37 103.92 474.18 76.57 439.36 70.08
  Q 432.36 68.78 419.44 68.77
  Q 373.60 68.72 327.87 68.76
  A 1.00 0.98 -74.4 0 0 327.02 69.25
  L 231.19 233.44
  Q 230.68 234.31 231.70 234.29
  L 253.15 233.94
  A 0.91 0.88 14.1 0 0 253.91 233.50
  L 280.90 187.36
  A 1.24 1.24 15.2 0 1 281.97 186.75
  L 380.00 186.77
  A 0.51 0.50 0.0 0 1 380.51 187.27
  L 380.68 233.17
  A 1.16 1.14 89.5 0 0 381.83 234.32
  Q 401.67 234.08 420.88 234.08
  C 455.50 234.09 482.86 218.13 499.09 187.23
  A 0.85 0.81 -75.4 0 1 499.82 186.78
  L 533.94 186.77
  A 0.85 0.84 -89.3 0 1 534.78 187.64
  Q 534.26 210.03 534.89 233.63
  A 0.40 0.39 -89.2 0 0 535.26 234.02
  Q 544.28 234.55 553.78 234.03
  A 0.53 0.51 88.9 0 0 554.27 233.50
  L 554.30 187.30
  A 0.52 0.51 -0.6 0 1 554.81 186.79
  C 577.54 186.63 597.78 189.48 617.30 174.82
  C 657.75 144.44 643.51 80.88 594.44 70.10
  Q 588.18 68.73 576.42 68.73
  Q 555.88 68.75 535.26 68.79
  A 0.50 0.50 0.0 0 0 534.76 69.29
  L 534.52 138.96
  A 0.50 0.49 -90.0 0 1 534.03 139.46
  L 506.81 139.44
  A 0.60 0.59 84.7 0 1 506.23 138.95
  Z"
/>
<path fill="#ffffff" d="
  M 506.81 139.44
  L 534.03 139.46
  A 0.50 0.49 -90.0 0 0 534.52 138.96
  L 534.76 69.29
  A 0.50 0.50 0.0 0 1 535.26 68.79
  Q 555.88 68.75 576.42 68.73
  Q 588.18 68.73 594.44 70.10
  C 643.51 80.88 657.75 144.44 617.30 174.82
  C 597.78 189.48 577.54 186.63 554.81 186.79
  A 0.52 0.51 -0.6 0 0 554.30 187.30
  L 554.27 233.50
  A 0.53 0.51 88.9 0 1 553.78 234.03
  Q 544.28 234.55 535.26 234.02
  A 0.40 0.39 -89.2 0 1 534.89 233.63
  Q 534.26 210.03 534.78 187.64
  A 0.85 0.84 -89.3 0 0 533.94 186.77
  L 499.82 186.78
  A 0.85 0.81 -75.4 0 0 499.09 187.23
  C 482.86 218.13 455.50 234.09 420.88 234.08
  Q 401.67 234.08 381.83 234.32
  A 1.16 1.14 89.5 0 1 380.68 233.17
  L 380.51 187.27
  A 0.51 0.50 0.0 0 0 380.00 186.77
  L 281.97 186.75
  A 1.24 1.24 15.2 0 0 280.90 187.36
  L 253.91 233.50
  A 0.91 0.88 14.1 0 1 253.15 233.94
  L 231.70 234.29
  Q 230.68 234.31 231.19 233.44
  L 327.02 69.25
  A 1.00 0.98 -74.4 0 1 327.87 68.76
  Q 373.60 68.72 419.44 68.77
  Q 432.36 68.78 439.36 70.08
  C 474.18 76.57 500.37 103.92 506.23 138.95
  A 0.60 0.59 84.7 0 0 506.81 139.44
  Z
  M 579.65 115.99
  C 598.31 115.87 597.72 139.27 580.64 139.48
  Q 567.84 139.63 554.85 139.42
  A 0.49 0.49 0.6 0 0 554.35 139.91
  L 554.27 166.73
  A 0.51 0.51 90.0 0 0 554.78 167.24
  C 576.74 167.25 600.38 171.22 614.69 149.92
  C 630.06 127.04 618.11 96.38 591.53 89.43
  Q 586.90 88.22 578.83 88.25
  Q 566.78 88.31 555.00 88.16
  A 0.70 0.68 0.4 0 0 554.29 88.84
  L 554.35 115.40
  A 0.51 0.50 0.0 0 0 554.86 115.90
  Q 567.34 116.08 579.65 115.99
  Z
  M 352.18 139.20
  L 309.57 139.31
  A 0.93 0.84 13.0 0 0 308.81 139.73
  L 293.24 166.74
  A 0.29 0.29 -74.7 0 0 293.49 167.18
  L 380.24 167.20
  A 0.50 0.49 -90.0 0 0 380.73 166.70
  L 380.76 88.90
  A 0.51 0.50 90.0 0 0 380.26 88.39
  L 353.20 88.30
  A 0.49 0.48 88.9 0 0 352.72 88.81
  Q 353.25 113.76 352.70 138.69
  A 0.53 0.52 -0.0 0 1 352.18 139.20
  Z
  M 433.38 117.11
  C 467.56 125.88 468.59 174.79 434.82 185.18
  C 425.54 188.04 411.48 186.80 400.87 186.69
  A 0.50 0.49 0.6 0 0 400.36 187.18
  L 400.36 213.89
  A 0.53 0.52 0.6 0 0 400.88 214.41
  Q 422.24 214.68 426.75 214.51
  C 461.91 213.24 489.48 183.09 487.58 147.43
  C 486.03 118.46 464.23 95.19 436.69 89.47
  C 426.00 87.26 412.53 88.24 400.87 88.35
  A 0.51 0.50 -0.0 0 0 400.36 88.85
  L 400.35 115.39
  A 0.52 0.51 0.6 0 0 400.86 115.90
  C 411.11 116.06 424.52 114.83 433.38 117.11
  Z"
/>
<path fill="#dd1d32" d="
  M 580.64 139.48
  C 597.72 139.27 598.31 115.87 579.65 115.99
  Q 567.34 116.08 554.86 115.90
  A 0.51 0.50 0.0 0 1 554.35 115.40
  L 554.29 88.84
  A 0.70 0.68 0.4 0 1 555.00 88.16
  Q 566.78 88.31 578.83 88.25
  Q 586.90 88.22 591.53 89.43
  C 618.11 96.38 630.06 127.04 614.69 149.92
  C 600.38 171.22 576.74 167.25 554.78 167.24
  A 0.51 0.51 -89.7 0 1 554.27 166.73
  L 554.35 139.91
  A 0.49 0.49 0.6 0 1 554.85 139.42
  Q 567.84 139.63 580.64 139.48
  Z"
/>
<path fill="#dd1d32" d="
  M 352.70 138.69
  Q 353.25 113.76 352.72 88.81
  A 0.49 0.48 88.9 0 1 353.20 88.30
  L 380.26 88.39
  A 0.51 0.50 90.0 0 1 380.76 88.90
  L 380.73 166.70
  A 0.50 0.49 -90.0 0 1 380.24 167.20
  L 293.49 167.18
  A 0.29 0.29 -74.7 0 1 293.24 166.74
  L 308.81 139.73
  A 0.93 0.84 13.0 0 1 309.57 139.31
  L 352.18 139.20
  A 0.53 0.52 -0.0 0 0 352.70 138.69
  Z"
/>
<path fill="#dd1d32" d="
  M 434.82 185.18
  C 468.59 174.79 467.56 125.88 433.38 117.11
  C 424.52 114.83 411.11 116.06 400.86 115.90
  A 0.52 0.51 0.6 0 1 400.35 115.39
  L 400.36 88.85
  A 0.51 0.50 -0.0 0 1 400.87 88.35
  C 412.53 88.24 426.00 87.26 436.69 89.47
  C 464.23 95.19 486.03 118.46 487.58 147.43
  C 489.48 183.09 461.91 213.24 426.75 214.51
  Q 422.24 214.68 400.88 214.41
  A 0.53 0.52 0.6 0 1 400.36 213.89
  L 400.36 187.18
  A 0.50 0.49 0.6 0 1 400.87 186.69
  C 411.48 186.80 425.54 188.04 434.82 185.18
  Z"
/>
<path fill="#c01d2e" d="
  M 623.52 247.99
  A 13.84 13.84 0.0 0 1 609.68 261.83
  A 13.84 13.84 0.0 0 1 595.84 247.99
  A 13.84 13.84 0.0 0 1 609.68 234.15
  A 13.84 13.84 0.0 0 1 623.52 247.99
  Z
  M 620.88 248.03
  A 11.19 11.19 0.0 0 0 609.69 236.84
  A 11.19 11.19 0.0 0 0 598.50 248.03
  A 11.19 11.19 0.0 0 0 609.69 259.22
  A 11.19 11.19 0.0 0 0 620.88 248.03
  Z"
/>
<path fill="#ffffff" d="
  M 620.88 248.03
  A 11.19 11.19 0.0 0 1 609.69 259.22
  A 11.19 11.19 0.0 0 1 598.50 248.03
  A 11.19 11.19 0.0 0 1 609.69 236.84
  A 11.19 11.19 0.0 0 1 620.88 248.03
  Z
  M 611.35 250.04
  L 612.38 254.52
  A 1.59 0.50 83.7 0 0 612.76 255.39
  Q 613.78 256.40 615.12 255.86
  A 0.80 0.77 80.1 0 0 615.60 255.14
  Q 615.70 251.29 613.64 248.29
  A 0.58 0.58 51.2 0 1 613.72 247.54
  C 617.66 243.87 614.96 240.21 610.64 239.60
  Q 607.77 239.19 604.82 239.94
  A 0.67 0.65 -7.5 0 0 604.32 240.57
  L 604.28 254.94
  A 1.00 0.86 -75.8 0 0 604.68 255.74
  Q 605.68 256.39 606.45 255.64
  A 1.44 0.68 83.7 0 0 606.75 254.76
  L 607.08 249.41
  A 0.56 0.48 -83.8 0 1 607.65 248.88
  L 610.73 249.38
  A 0.88 0.72 86.3 0 1 611.35 250.04
  Z"
/>
<path fill="#c01d2e" d="
  M 610.73 249.38
  L 607.65 248.88
  A 0.56 0.48 -83.8 0 0 607.08 249.41
  L 606.75 254.76
  A 1.44 0.68 83.7 0 1 606.45 255.64
  Q 605.68 256.39 604.68 255.74
  A 1.00 0.86 -75.8 0 1 604.28 254.94
  L 604.32 240.57
  A 0.67 0.65 -7.5 0 1 604.82 239.94
  Q 607.77 239.19 610.64 239.60
  C 614.96 240.21 617.66 243.87 613.72 247.54
  A 0.58 0.58 51.2 0 0 613.64 248.29
  Q 615.70 251.29 615.60 255.14
  A 0.80 0.77 80.1 0 1 615.12 255.86
  Q 613.78 256.40 612.76 255.39
  A 1.59 0.50 83.7 0 1 612.38 254.52
  L 611.35 250.04
  A 0.88 0.72 86.3 0 0 610.73 249.38
  Z
  M 612.1319 243.7095
  A 1.42 1.42 0.0 0 0 610.7169 242.2845
  L 608.1169 242.2755
  A 1.42 1.42 0.0 0 0 606.6919 243.6905
  L 606.6881 244.7905
  A 1.42 1.42 0.0 0 0 608.1031 246.2155
  L 610.7031 246.2245
  A 1.42 1.42 0.0 0 0 612.1281 244.8095
  L 612.1319 243.7095
  Z"
/>
<rect fill="#ffffff" x="-2.72" y="-1.97" transform="translate(609.41,244.25) rotate(0.2)" width="5.44" height="3.94" rx="1.42"/>
<path fill="#4d5055" d="
  M 288.92 321.85
  C 298.29 313.31 312.10 317.23 312.18 330.99
  Q 312.27 344.67 312.10 351.07
  A 0.59 0.49 -88.9 0 1 311.60 351.65
  L 306.93 351.62
  A 0.58 0.50 -88.9 0 1 306.44 351.03
  Q 306.74 341.28 306.28 331.61
  C 305.57 316.87 288.44 321.71 288.44 334.29
  Q 288.44 342.70 288.50 351.21
  A 0.51 0.50 -89.4 0 1 287.99 351.72
  L 283.26 351.71
  A 0.51 0.50 90.0 0 1 282.76 351.20
  L 282.76 298.54
  A 0.60 0.49 89.5 0 1 283.24 297.94
  L 288.03 297.88
  A 0.59 0.48 89.5 0 1 288.52 298.47
  L 288.56 321.69
  Q 288.56 322.19 288.92 321.85
  Z"
/>
<path fill="#606164" d="
  M 800.48 300.93
  Q 798.76 303.21 801.56 303.75
  Q 807.35 304.87 804.56 309.55
  A 1.63 1.49 -83.5 0 1 803.84 310.18
  Q 801.06 311.36 798.72 309.78
  A 1.16 0.87 20.3 0 1 798.22 309.01
  Q 798.19 308.39 798.77 308.25
  A 1.35 0.70 43.6 0 1 799.68 308.51
  C 802.28 310.24 805.67 307.21 802.31 305.85
  C 800.22 305.01 797.51 304.14 798.34 301.35
  C 799.51 297.46 806.32 298.93 804.88 301.03
  A 0.58 0.48 34.6 0 1 804.13 301.09
  Q 801.65 299.38 800.48 300.93
  Z"
/>
<path fill="#606164" d="
  M 810.20 302.49
  C 809.65 302.62 810.69 311.79 808.66 310.52
  A 1.05 0.74 -79.4 0 1 808.28 309.69
  L 808.27 300.05
  A 0.78 0.69 80.9 0 1 808.72 299.34
  Q 809.50 299.04 810.24 299.32
  A 1.28 1.16 87.0 0 1 810.92 300.00
  L 813.87 306.93
  Q 814.16 307.59 814.43 306.94
  L 817.35 300.03
  A 1.32 1.08 -84.8 0 1 818.02 299.35
  Q 818.77 299.07 819.52 299.33
  A 0.79 0.68 -82.2 0 1 819.98 300.04
  C 820.03 303.62 820.52 311.11 818.95 310.50
  A 0.84 0.67 -83.1 0 1 818.50 309.78
  L 818.30 302.97
  Q 818.28 302.38 818.05 302.91
  L 815.23 309.45
  Q 814.18 311.87 813.24 309.53
  L 810.52 302.81
  A 0.44 0.21 70.4 0 0 810.20 302.49
  Z"
/>
<path fill="#4d5055" d="
  M 32.61 340.01
  L 27.82 351.18
  A 0.82 0.73 -77.4 0 1 27.14 351.67
  L 21.58 351.73
  A 0.56 0.54 -78.0 0 1 21.09 350.94
  L 42.68 301.80
  A 0.84 0.74 -76.8 0 1 43.39 301.30
  L 48.42 301.34
  A 0.82 0.72 77.1 0 1 49.11 301.84
  L 69.92 351.01
  A 0.38 0.35 77.0 0 1 69.62 351.54
  L 63.79 351.74
  A 0.83 0.71 76.1 0 1 63.09 351.24
  L 58.18 339.98
  A 0.76 0.76 77.9 0 0 57.47 339.52
  L 33.31 339.56
  A 0.77 0.76 11.8 0 0 32.61 340.01
  Z
  M 35.49 333.22
  A 0.33 0.33 11.7 0 0 35.79 333.68
  L 55.21 333.82
  A 0.33 0.33 0.0 0 0 55.52 333.36
  L 45.97 309.97
  A 0.33 0.33 -44.7 0 0 45.36 309.97
  L 35.49 333.22
  Z"
/>
<path fill="#ffffff" d="
  M 35.49 333.22
  L 45.36 309.97
  A 0.33 0.33 -44.5 0 1 45.97 309.97
  L 55.52 333.36
  A 0.33 0.33 -13.6 0 1 55.21 333.82
  L 35.79 333.68
  A 0.33 0.33 13.5 0 1 35.49 333.22
  Z"
/>
<path fill="#4d5055" d="
  M 101.38 322.79
  C 106.91 315.97 117.48 315.23 122.72 322.94
  A 0.34 0.34 45.5 0 0 123.28 322.95
  Q 127.99 316.32 136.24 317.59
  C 144.97 318.93 146.14 324.71 146.22 332.88
  Q 146.32 342.02 146.22 351.18
  A 0.56 0.51 -89.4 0 1 145.71 351.73
  L 141.20 351.64
  A 0.56 0.52 90.0 0 1 140.69 351.09
  C 140.58 345.61 141.83 328.59 138.49 325.00
  C 134.49 320.70 127.38 322.75 125.08 327.42
  Q 123.74 330.15 123.84 336.38
  Q 123.97 343.66 124.13 350.99
  A 0.59 0.49 88.9 0 1 123.65 351.59
  L 118.72 351.62
  A 0.59 0.49 90.0 0 1 118.23 351.03
  C 118.28 343.41 118.84 335.17 117.61 327.68
  C 116.37 320.19 106.64 322.29 103.76 326.61
  C 100.31 331.78 101.32 344.70 101.56 351.04
  A 0.55 0.48 88.3 0 1 101.09 351.61
  L 96.22 351.73
  A 0.55 0.48 88.9 0 1 95.73 351.19
  L 95.59 319.04
  A 0.62 0.50 89.1 0 1 96.07 318.42
  L 100.13 318.32
  A 0.63 0.59 86.3 0 1 100.73 318.89
  L 101.08 322.68
  Q 101.11 323.11 101.38 322.79
  Z"
/>
<path fill="#4d5055" d="
  M 190.8267 334.3452
  A 18.10 17.80 -2.2 0 1 173.4233 352.8269
  A 18.10 17.80 -2.2 0 1 154.6533 335.7348
  A 18.10 17.80 -2.2 0 1 172.0567 317.2531
  A 18.10 17.80 -2.2 0 1 190.8267 334.3452
  Z
  M 173.2800 347.4082
  A 12.38 11.81 87.5 0 0 184.5388 334.5249
  A 12.38 11.81 87.5 0 0 172.2000 322.6718
  A 12.38 11.81 87.5 0 0 160.9412 335.5551
  A 12.38 11.81 87.5 0 0 173.2800 347.4082
  Z"
/>
<path fill="#4d5055" d="
  M 204.89 322.55
  Q 209.68 317.01 217.21 317.49
  A 0.65 0.63 -2.7 0 1 217.81 318.02
  Q 218.21 320.54 217.61 322.95
  A 0.56 0.54 11.0 0 1 216.99 323.35
  C 200.79 321.08 205.34 342.01 204.91 351.11
  A 0.57 0.53 -88.8 0 1 204.39 351.65
  L 199.72 351.72
  A 0.55 0.48 88.9 0 1 199.23 351.18
  L 199.04 319.07
  A 0.58 0.50 89.0 0 1 199.52 318.49
  L 203.45 318.32
  A 1.34 1.10 -90.0 0 1 204.59 319.72
  L 204.48 322.44
  Q 204.45 323.06 204.89 322.55
  Z"
/>
<path fill="#4d5055" d="
  M 232.30 351.63
  C 215.73 345.64 218.12 319.40 236.43 317.60
  C 248.48 316.41 254.74 324.92 254.35 336.18
  A 0.53 0.52 -88.9 0 1 253.83 336.69
  L 228.46 336.74
  A 0.99 0.98 -7.1 0 0 227.50 337.96
  C 230.08 348.10 241.76 350.98 248.50 342.68
  A 0.56 0.49 -51.2 0 1 249.23 342.55
  L 252.71 345.39
  A 0.59 0.52 -51.9 0 1 252.76 346.16
  C 248.10 352.32 239.36 354.18 232.30 351.63
  Z
  M 227.99 331.70
  C 234.37 331.76 240.82 332.34 247.33 331.80
  A 0.90 0.90 83.4 0 0 248.14 330.77
  C 246.44 319.45 230.55 320.46 227.62 331.21
  A 0.39 0.39 8.1 0 0 227.99 331.70
  Z"
/>
<path fill="#4d5055" d="
  M 367.97 322.63
  C 369.83 321.21 371.12 319.42 373.26 318.58
  Q 383.06 314.73 389.40 323.01
  A 0.35 0.35 -45.9 0 0 389.97 323.00
  C 396.58 313.36 412.38 316.12 412.66 329.28
  Q 412.90 340.09 413.02 350.98
  A 0.58 0.48 89.4 0 1 412.54 351.57
  L 407.44 351.58
  A 0.60 0.48 -89.4 0 1 406.96 350.97
  Q 407.19 342.16 407.21 333.40
  Q 407.22 329.19 406.49 327.33
  C 403.02 318.51 390.53 323.21 390.52 331.76
  Q 390.50 341.35 390.49 350.97
  A 0.61 0.49 -90.0 0 1 390.00 351.58
  L 385.25 351.58
  A 0.60 0.49 90.0 0 1 384.76 350.98
  Q 384.75 341.45 384.74 332.01
  C 384.73 318.43 370.73 320.81 368.52 330.76
  C 367.18 336.79 368.44 344.71 368.16 351.09
  A 0.59 0.51 -88.4 0 1 367.64 351.66
  L 362.75 351.57
  A 0.61 0.49 -89.5 0 1 362.27 350.96
  Q 362.23 335.86 362.26 320.84
  C 362.26 320.09 362.09 319.76 361.92 319.06
  A 0.46 0.41 80.6 0 1 362.28 318.48
  L 366.96 318.27
  A 0.57 0.49 87.9 0 1 367.47 318.82
  L 367.55 322.44
  Q 367.56 322.95 367.97 322.63
  Z"
/>
<path fill="#4d5055" d="
  M 444.35 347.93
  C 438.42 354.25 424.00 355.04 421.67 344.86
  C 418.52 331.02 436.46 331.07 444.22 330.74
  A 0.52 0.52 -1.1 0 0 444.72 330.22
  C 444.62 320.05 432.26 321.99 426.92 326.04
  A 0.65 0.51 -38.6 0 1 426.13 326.05
  L 423.22 322.69
  A 0.57 0.47 -37.8 0 1 423.39 321.95
  C 432.24 315.32 450.38 314.59 450.24 330.01
  Q 450.13 341.78 450.63 351.19
  A 0.51 0.47 89.4 0 1 450.15 351.72
  L 445.82 351.68
  A 0.62 0.58 85.4 0 1 445.24 351.15
  L 444.76 348.06
  Q 444.69 347.57 444.35 347.93
  Z
  M 427.71 340.48
  C 424.41 349.84 445.21 351.89 444.62 336.39
  A 0.58 0.57 1.1 0 0 444.09 335.84
  C 439.94 335.51 429.46 335.52 427.71 340.48
  Z"
/>
<path fill="#4d5055" d="
  M 466.16 322.33
  Q 471.72 316.68 479.25 317.51
  C 486.74 318.33 489.24 323.78 489.58 330.98
  Q 490.05 341.10 489.62 351.26
  A 0.52 0.52 -88.3 0 1 489.09 351.76
  L 484.73 351.71
  A 0.52 0.49 90.0 0 1 484.24 351.19
  Q 484.35 343.31 484.18 335.45
  C 484.05 329.24 484.06 322.49 476.29 322.82
  Q 466.95 323.21 466.33 333.53
  Q 466.11 337.33 466.07 351.11
  A 0.55 0.51 -89.4 0 1 465.56 351.65
  L 460.98 351.72
  A 0.54 0.49 88.9 0 1 460.48 351.19
  L 460.25 319.04
  A 0.57 0.51 88.4 0 1 460.73 318.47
  L 464.94 318.27
  A 0.58 0.50 86.0 0 1 465.47 318.80
  L 465.76 322.19
  Q 465.80 322.69 466.16 322.33
  Z"
/>
<path fill="#4d5055" d="
  M 525.64 322.56
  Q 530.69 316.80 538.42 317.62
  A 0.54 0.53 4.5 0 1 538.91 318.18
  L 538.62 322.84
  A 0.50 0.47 4.6 0 1 538.07 323.28
  Q 526.28 322.14 525.91 334.21
  Q 525.65 342.67 525.75 351.19
  A 0.53 0.47 89.9 0 1 525.27 351.73
  L 520.71 351.64
  A 0.58 0.51 89.9 0 1 520.21 351.07
  L 519.79 319.05
  A 0.63 0.58 83.9 0 1 520.25 318.43
  Q 522.69 317.88 525.02 318.54
  A 0.67 0.54 -82.1 0 1 525.41 319.18
  L 525.26 322.45
  Q 525.23 323.02 525.64 322.56
  Z"
/>
<path fill="#4d5055" d="
  M 561.27 352.52
  C 547.07 353.66 539.13 341.49 543.07 328.61
  C 545.87 319.44 557.59 314.96 566.19 318.79
  C 572.96 321.80 575.53 329.12 575.23 336.22
  A 0.54 0.53 -88.3 0 1 574.70 336.73
  L 549.40 336.74
  A 0.97 0.97 -5.2 0 0 548.45 337.88
  C 550.43 348.72 562.66 350.14 569.37 342.80
  A 0.61 0.53 -49.1 0 1 570.13 342.69
  L 573.63 345.37
  A 0.55 0.51 -52.6 0 1 573.70 346.12
  Q 569.30 351.88 561.27 352.52
  Z
  M 549.00 331.71
  C 555.37 331.76 562.26 332.49 568.51 331.81
  A 0.52 0.52 -5.7 0 0 568.97 331.25
  C 568.07 319.62 550.38 320.28 548.58 331.21
  A 0.43 0.42 5.1 0 0 549.00 331.71
  Z"
/>
<path fill="#4d5055" d="
  M 595.79 347.04
  C 603.36 345.53 600.76 337.93 594.27 337.47
  Q 592.40 337.34 586.24 335.02
  C 582.37 333.57 580.93 329.34 581.73 325.48
  C 583.72 315.88 600.71 314.66 605.09 323.08
  A 0.62 0.56 59.7 0 1 604.93 323.85
  L 601.23 326.33
  A 0.62 0.55 51.9 0 1 600.47 326.19
  Q 595.15 320.12 588.27 324.73
  Q 585.82 326.37 587.57 328.43
  C 590.32 331.67 596.70 332.20 600.64 333.67
  C 607.11 336.08 608.47 344.16 604.05 348.86
  C 598.36 354.93 585.30 353.66 580.50 346.93
  A 0.59 0.52 54.2 0 1 580.57 346.16
  L 584.36 343.35
  A 0.61 0.52 51.4 0 1 585.12 343.50
  Q 589.13 348.37 595.79 347.04
  Z"
/>
<path fill="#4d5055" d="
  M 648.3511 335.6676
  A 18.07 17.76 1.8 0 1 629.7321 352.8512
  A 18.07 17.76 1.8 0 1 612.2289 334.5324
  A 18.07 17.76 1.8 0 1 630.8479 317.3488
  A 18.07 17.76 1.8 0 1 648.3511 335.6676
  Z
  M 630.2568 347.4699
  A 12.37 11.85 90.2 0 0 642.1499 335.1414
  A 12.37 11.85 90.2 0 0 630.3432 322.7301
  A 12.37 11.85 90.2 0 0 618.4501 335.0586
  A 12.37 11.85 90.2 0 0 630.2568 347.4699
  Z"
/>
<path fill="#4d5055" d="
  M 702.38 322.55
  Q 707.04 316.98 714.53 317.58
  A 0.64 0.53 2.9 0 1 715.12 318.12
  L 715.07 322.92
  A 0.55 0.45 3.9 0 1 714.47 323.35
  C 698.83 321.77 702.18 339.40 702.25 350.98
  A 0.61 0.49 -90.0 0 1 701.76 351.59
  L 696.90 351.57
  A 0.60 0.47 -88.9 0 1 696.43 350.95
  Q 696.99 334.91 696.37 318.93
  A 0.55 0.48 88.9 0 1 696.85 318.36
  L 701.10 318.34
  A 0.64 0.50 86.3 0 1 701.61 318.92
  L 701.97 322.46
  Q 702.02 322.97 702.38 322.55
  Z"
/>
<path fill="#4d5055" d="
  M 747.06 349.02
  C 736.15 356.03 721.61 352.89 718.97 338.96
  C 715.56 321.04 734.29 311.09 748.17 321.88
  A 1.02 1.00 -47.1 0 1 748.21 323.43
  L 745.12 326.21
  A 0.92 0.78 -54.3 0 1 744.28 326.42
  C 743.00 326.01 742.43 324.83 741.47 324.27
  Q 736.04 321.10 730.73 323.74
  C 721.65 328.26 722.77 343.99 733.18 346.96
  Q 739.11 348.66 744.16 343.84
  A 0.55 0.52 -44.6 0 1 744.90 343.83
  L 747.42 346.27
  Q 748.98 347.78 747.06 349.02
  Z"
/>
<path fill="#4d5055" d="
  M 766.26 352.27
  C 750.51 349.44 748.53 326.88 761.75 319.39
  Q 766.96 316.44 772.93 317.57
  C 782.37 319.36 786.73 326.90 786.23 336.26
  A 0.54 0.52 1.7 0 1 785.69 336.75
  L 759.87 336.84
  A 0.45 0.44 86.6 0 0 759.43 337.34
  C 760.82 348.53 773.57 350.34 780.37 342.79
  A 0.59 0.49 -48.0 0 1 781.12 342.68
  L 784.48 345.65
  A 0.58 0.48 -48.7 0 1 784.46 346.41
  Q 777.36 354.26 766.26 352.27
  Z
  M 779.80 331.37
  C 779.45 319.89 761.45 319.74 759.42 331.43
  A 0.43 0.42 -85.3 0 0 759.83 331.93
  L 779.31 331.89
  A 0.50 0.49 88.9 0 0 779.80 331.37
  Z"
/>
<path fill="#4d5055" d="
  M 346.19 346.90
  Q 345.90 347.05 345.78 347.46
  Q 345.60 348.08 345.36 348.32
  C 337.64 356.21 322.98 353.55 322.91 340.74
  Q 322.86 329.89 322.63 319.02
  A 0.58 0.48 88.9 0 1 323.11 318.42
  L 327.79 318.38
  A 0.60 0.48 89.5 0 1 328.28 318.98
  Q 328.11 333.10 328.34 339.67
  C 328.65 348.61 339.55 349.63 343.93 343.52
  C 347.40 338.67 346.47 325.10 346.16 319.24
  A 0.62 0.49 86.9 0 1 346.61 318.60
  L 351.10 318.32
  A 0.65 0.51 84.0 0 1 351.66 318.89
  Q 352.17 322.75 352.13 323.75
  Q 351.58 337.42 352.02 351.08
  A 0.55 0.47 88.8 0 1 351.55 351.65
  L 347.36 351.67
  A 0.58 0.53 88.9 0 1 346.83 351.11
  L 346.69 347.31
  A 0.43 0.34 77.8 0 0 346.19 346.90
  Z"
/>
<path fill="#4d5055" d="
  M 680.35 347.67
  C 671.88 356.55 656.41 353.39 656.74 339.50
  C 656.90 332.66 656.68 325.79 656.83 318.94
  A 0.54 0.52 -90.0 0 1 657.34 318.41
  L 661.93 318.39
  A 0.52 0.51 89.4 0 1 662.44 318.90
  C 662.50 324.89 661.13 339.08 663.67 344.00
  C 666.46 349.38 675.59 348.07 678.57 343.06
  C 681.58 337.98 680.74 325.08 680.32 319.22
  A 0.62 0.59 81.4 0 1 680.76 318.59
  Q 683.19 318.01 685.70 318.45
  A 0.62 0.60 -85.0 0 1 686.19 319.06
  L 686.37 351.08
  A 0.55 0.48 89.4 0 1 685.89 351.64
  L 681.38 351.67
  A 0.59 0.53 87.8 0 1 680.84 351.11
  L 680.69 347.81
  Q 680.67 347.34 680.35 347.67
  Z"
/>
<ellipse fill="#ffffff" cx="0.00" cy="0.00" transform="translate(172.74,335.04) rotate(87.5)" rx="12.38" ry="11.81"/>
<path fill="#ffffff" d="
  M 247.33 331.80
  C 240.82 332.34 234.37 331.76 227.99 331.70
  A 0.39 0.39 8.1 0 1 227.62 331.21
  C 230.55 320.46 246.44 319.45 248.14 330.77
  A 0.90 0.90 83.4 0 1 247.33 331.80
  Z"
/>
<path fill="#ffffff" d="
  M 568.51 331.81
  C 562.26 332.49 555.37 331.76 549.00 331.71
  A 0.43 0.42 5.1 0 1 548.58 331.21
  C 550.38 320.28 568.07 319.62 568.97 331.25
  A 0.52 0.52 -5.7 0 1 568.51 331.81
  Z"
/>
<ellipse fill="#ffffff" cx="0.00" cy="0.00" transform="translate(630.30,335.10) rotate(90.2)" rx="12.37" ry="11.85"/>
<path fill="#ffffff" d="
  M 759.42 331.43
  C 761.45 319.74 779.45 319.89 779.80 331.37
  A 0.50 0.49 88.9 0 1 779.31 331.89
  L 759.83 331.93
  A 0.43 0.42 -85.3 0 1 759.42 331.43
  Z"
/>
<path fill="#ffffff" d="
  M 444.62 336.39
  C 445.21 351.89 424.41 349.84 427.71 340.48
  C 429.46 335.52 439.94 335.51 444.09 335.84
  A 0.58 0.57 1.1 0 1 444.62 336.39
  Z"
/>
<circle fill="#4d5055" cx="799.46" cy="347.95" r="4.29"/>
</svg>
