<?xml version="1.0" encoding="UTF-8" standalone="no"?>
<!DOCTYPE svg PUBLIC "-//W3C//DTD SVG 1.1//EN" "http://www.w3.org/Graphics/SVG/1.1/DTD/svg11.dtd">
<svg xmlns="http://www.w3.org/2000/svg" version="1.1" viewBox="0 0 1550 1353">
<g stroke-width="2.00" fill="none" stroke-linecap="butt">
<path stroke="#9b9ec8" vector-effect="non-scaling-stroke" d="
  M 1550.00 830.55
  Q 1544.54 829.58 1539.00 830.01
  A 0.55 0.54 87.8 0 0 1538.50 830.56
  L 1538.42 869.66
  Q 1538.42 870.31 1537.93 869.88
  L 1491.67 829.75
  A 1.34 1.26 -23.8 0 0 1490.79 829.44
  L 1486.02 829.55
  A 0.52 0.51 -0.6 0 0 1485.51 830.06
  L 1485.52 887.71
  A 0.50 0.49 89.4 0 0 1486.02 888.21
  L 1496.72 887.98
  A 0.53 0.53 -1.1 0 0 1497.23 887.45
  L 1497.25 849.73
  Q 1497.25 849.09 1497.74 849.50
  Q 1519.39 867.89 1540.98 886.37
  C 1544.00 888.95 1546.22 889.83 1550.00 888.81"
/>
<path stroke="#fae088" vector-effect="non-scaling-stroke" d="
  M 0.00 772.21
  Q 51.85 771.75 102.25 783.79"
/>
<path stroke="#f1969e" vector-effect="non-scaling-stroke" d="
  M 102.25 783.79
  Q 85.10 813.24 71.97 844.72
  A 0.33 0.33 -79.0 0 0 72.28 845.18
  Q 113.37 844.88 149.51 851.48
  C 243.62 868.69 335.42 912.52 413.49 966.76
  C 508.72 1032.93 592.43 1116.71 647.98 1218.09
  Q 682.58 1281.25 696.24 1352.01
  Q 696.48 1353.27 696.70 1352.00
  C 731.40 1146.03 761.96 930.95 829.52 729.99"
/>
<path stroke="#9b9ec9" vector-effect="non-scaling-stroke" d="
  M 829.52 729.99
  L 843.64 730.11
  A 0.90 0.83 74.9 0 1 844.37 730.57
  L 863.14 764.19
  A 0.88 0.83 74.7 0 0 863.88 764.64
  L 889.77 764.55
  Q 890.28 764.54 890.02 764.09
  Q 867.57 725.70 845.16 687.42
  C 845.00 687.15 844.99 686.79 844.96 686.50"
/>
<path stroke="#f1969e" vector-effect="non-scaling-stroke" d="
  M 844.96 686.50
  Q 854.14 663.78 863.52 641.15
  C 928.79 483.64 1025.12 343.62 1150.19 227.92
  C 1212.38 170.38 1280.20 118.97 1351.48 73.23
  Q 1352.31 72.70 1351.35 72.91
  Q 1224.87 99.57 1100.50 135.21"
/>
<path stroke="#fae088" vector-effect="non-scaling-stroke" d="
  M 1100.50 135.21
  Q 1100.75 134.53 1101.70 133.70
  Q 1185.47 60.43 1278.58 1.00
  Q 1280.47 -0.21 1278.27 0.25
  C 1024.11 53.59 773.73 133.54 544.24 256.52
  C 429.57 317.97 320.93 391.49 224.37 478.87
  C 166.16 531.55 112.79 589.73 67.27 653.76
  C 40.82 690.97 17.34 730.00 0.00 771.69"
/>
<path stroke="#9b9ec9" vector-effect="non-scaling-stroke" d="
  M 941.31 677.46
  Q 941.31 676.98 941.70 677.27
  L 1059.10 766.22
  A 1.48 1.31 60.6 0 0 1059.99 766.53
  L 1071.14 766.37
  A 0.52 0.52 -0.6 0 0 1071.65 765.85
  C 1071.84 746.63 1071.40 727.39 1071.70 708.18
  Q 1071.94 692.30 1071.67 639.91
  A 0.52 0.50 90.0 0 0 1071.17 639.39
  L 1047.51 639.39
  A 0.52 0.50 90.0 0 0 1047.01 639.91
  Q 1046.84 682.96 1046.71 726.00
  Q 1046.71 727.77 1047.02 729.47
  Q 1047.20 730.42 1046.44 729.83
  L 928.42 638.72
  A 2.11 1.89 61.3 0 0 927.20 638.29
  L 916.27 638.30
  A 0.51 0.50 -0.0 0 0 915.76 638.80
  L 915.77 764.20
  A 0.51 0.50 0.0 0 0 916.28 764.70
  L 940.71 764.61
  A 0.50 0.50 0.0 0 0 941.21 764.11
  L 941.31 677.46"
/>
<path stroke="#9b9ec9" vector-effect="non-scaling-stroke" d="
  M 1133.06 677.45
  Q 1133.06 676.91 1133.49 677.23
  L 1250.59 765.97
  A 1.81 1.79 -23.5 0 0 1251.49 766.32
  Q 1257.32 766.84 1263.23 766.25
  A 0.56 0.54 -2.9 0 0 1263.73 765.71
  L 1263.71 639.91
  A 0.51 0.50 90.0 0 0 1263.21 639.40
  L 1239.26 639.30
  A 0.52 0.50 90.0 0 0 1238.76 639.82
  L 1238.73 729.37
  Q 1238.73 730.18 1238.08 729.69
  L 1119.92 638.48
  A 1.40 1.39 63.1 0 0 1119.04 638.19
  L 1108.02 638.31
  A 0.50 0.50 0.0 0 0 1107.52 638.81
  L 1107.54 764.10
  A 0.50 0.49 90.0 0 0 1108.03 764.60
  L 1132.50 764.70
  A 0.50 0.49 -90.0 0 0 1132.99 764.20
  L 1133.06 677.45"
/>
<path stroke="#9b9ec9" vector-effect="non-scaling-stroke" d="
  M 1325.06 704.56
  L 1398.02 704.52
  A 0.43 0.42 0.0 0 0 1398.45 704.10
  L 1398.36 687.79
  A 0.52 0.50 0.0 0 0 1397.84 687.29
  L 1325.06 687.23
  A 0.51 0.49 0.0 0 1 1324.55 686.74
  L 1324.54 656.26
  A 0.51 0.49 -0.0 0 1 1325.05 655.77
  L 1397.72 655.73
  A 0.54 0.50 0.5 0 0 1398.26 655.24
  L 1398.36 639.54
  A 0.53 0.50 0.0 0 0 1397.83 639.04
  L 1300.23 639.01
  A 1.22 1.22 0.0 0 0 1299.01 640.23
  L 1299.03 764.22
  A 0.50 0.49 0.0 0 0 1299.53 764.71
  L 1397.83 764.70
  A 0.52 0.49 0.0 0 0 1398.35 764.21
  L 1398.45 748.76
  A 0.52 0.50 0.0 0 0 1397.93 748.26
  L 1326.06 748.25
  Q 1324.16 748.25 1324.18 746.33
  L 1324.56 705.06
  A 0.50 0.50 0.0 0 1 1325.06 704.56"
/>
<path stroke="#9b9ec9" vector-effect="non-scaling-stroke" d="
  M 1486.57 707.55
  Q 1485.94 706.98 1486.80 707.00
  C 1502.60 707.42 1522.22 702.24 1533.68 691.43
  C 1541.94 683.63 1543.57 671.56 1538.62 661.56
  C 1532.58 649.38 1514.16 642.23 1501.50 640.12
  Q 1495.39 639.10 1481.56 639.04
  Q 1459.01 638.93 1435.88 639.03
  A 0.89 0.88 -0.3 0 0 1435.00 639.91
  L 1435.00 764.26
  A 0.44 0.44 0.0 0 0 1435.44 764.70
  L 1459.92 764.63
  A 0.51 0.50 -90.0 0 0 1460.42 764.12
  L 1460.43 713.70
  Q 1460.43 712.84 1461.06 713.42
  L 1516.71 764.21
  A 2.04 2.01 65.6 0 0 1518.06 764.73
  L 1547.85 764.74
  Q 1548.93 764.74 1548.13 764.00
  L 1486.57 707.55"
/>
<path stroke="#9b9ec8" vector-effect="non-scaling-stroke" d="
  M 1295.18 872.74
  L 1302.53 887.47
  A 1.41 1.28 75.5 0 0 1303.72 888.25
  L 1314.79 888.23
  A 0.48 0.48 76.0 0 0 1315.21 887.53
  L 1284.56 828.61
  A 0.93 0.70 72.0 0 0 1283.84 828.10
  L 1279.21 828.16
  A 0.95 0.69 -72.2 0 0 1278.50 828.68
  L 1247.78 887.57
  A 0.33 0.31 -74.8 0 0 1248.04 888.05
  L 1259.14 888.19
  A 1.60 1.42 -75.4 0 0 1260.49 887.29
  L 1267.58 872.74
  A 0.81 0.81 12.8 0 1 1268.31 872.28
  L 1294.44 872.31
  A 0.85 0.78 -12.5 0 1 1295.18 872.74"
/>
<path stroke="#9b9ec8" vector-effect="non-scaling-stroke" d="
  M 896.84 852.05
  C 885.70 896.39 970.15 902.17 975.15 862.69
  C 980.30 821.94 905.41 817.95 896.84 852.05"
/>
<path stroke="#9b9ec8" vector-effect="non-scaling-stroke" d="
  M 1105.06 855.33
  C 1098.77 896.12 1176.51 901.18 1183.62 864.13
  C 1191.70 822.09 1111.11 816.09 1105.06 855.33"
/>
<path stroke="#9b9ec8" vector-effect="non-scaling-stroke" d="
  M 1392.06 856.81
  C 1388.66 898.28 1469.44 900.49 1471.32 860.12
  C 1473.18 820.12 1395.21 818.31 1392.06 856.81"
/>
<path stroke="#9b9ec8" vector-effect="non-scaling-stroke" d="
  M 817.28 852.23
  C 812.02 872.77 830.70 886.50 848.85 888.19
  C 860.93 889.32 872.74 888.21 883.47 882.41
  A 0.98 0.74 -17.2 0 0 883.99 881.69
  L 884.16 875.17
  A 0.69 0.59 7.5 0 0 883.61 874.56
  Q 879.82 873.76 878.48 874.49
  C 867.12 880.69 852.11 882.22 840.35 876.15
  C 824.92 868.19 823.91 852.42 838.84 843.14
  C 850.89 835.65 865.11 838.39 877.97 843.58
  Q 879.40 844.16 883.53 843.64
  A 0.67 0.66 1.1 0 0 884.11 843.09
  Q 884.73 839.57 883.81 836.14
  A 1.22 1.19 7.7 0 0 883.24 835.41
  C 865.24 825.22 823.75 826.91 817.28 852.23"
/>
<path stroke="#9b9ec8" vector-effect="non-scaling-stroke" d="
  M 999.43 866.42
  L 1020.30 887.55
  A 1.40 0.98 60.9 0 0 1021.14 887.96
  L 1034.13 888.15
  Q 1035.35 888.17 1034.48 887.26
  L 1010.51 862.39
  Q 1010.16 862.03 1010.66 861.98
  Q 1017.73 861.26 1023.92 857.96
  C 1033.90 852.63 1034.29 839.95 1024.56 834.18
  C 1014.04 827.94 999.36 829.53 987.57 829.89
  A 0.52 0.51 89.4 0 0 987.07 830.41
  L 987.06 887.34
  A 0.59 0.58 -86.1 0 0 987.56 887.92
  Q 992.95 888.67 998.28 888.05
  A 0.57 0.55 86.6 0 0 998.76 887.49
  L 999.04 866.56
  Q 999.04 866.03 999.43 866.42"
/>
<path stroke="#9b9ec8" vector-effect="non-scaling-stroke" d="
  M 1062.25 862.48
  A 0.75 0.75 0.0 0 1 1063.00 861.73
  C 1073.15 861.84 1090.75 861.99 1094.24 849.10
  C 1097.71 836.26 1082.43 830.09 1072.42 829.87
  Q 1061.91 829.64 1051.26 829.80
  A 0.51 0.50 -90.0 0 0 1050.76 830.31
  L 1050.42 886.93
  A 1.32 1.31 -89.8 0 0 1051.73 888.26
  L 1061.35 888.25
  A 0.83 0.82 0.3 0 0 1062.18 887.44
  L 1062.25 862.48"
/>
<path stroke="#9b9ec8" vector-effect="non-scaling-stroke" d="
  M 1207.81 866.38
  Q 1207.81 865.68 1208.30 866.18
  L 1229.26 887.76
  A 1.65 1.62 -21.6 0 0 1230.44 888.26
  L 1243.46 888.19
  Q 1244.18 888.19 1243.68 887.67
  L 1219.36 862.68
  Q 1218.48 861.77 1219.74 861.74
  C 1229.13 861.52 1242.49 855.11 1240.25 843.49
  C 1236.96 826.46 1207.18 829.61 1196.53 829.80
  A 0.52 0.51 -0.6 0 0 1196.02 830.31
  L 1196.01 887.38
  A 0.83 0.80 -90.0 0 0 1196.81 888.21
  L 1207.18 888.14
  A 0.52 0.52 -0.6 0 0 1207.69 887.62
  L 1207.81 866.38"
/>
<path stroke="#9b9ec8" vector-effect="non-scaling-stroke" d="
  M 1327.94 839.06
  L 1327.96 887.51
  A 0.71 0.68 90.0 0 0 1328.64 888.22
  L 1339.23 888.20
  A 0.52 0.51 90.0 0 0 1339.74 887.68
  L 1339.77 839.05
  A 0.51 0.51 -0.6 0 1 1340.27 838.54
  L 1354.62 838.42
  A 0.53 0.52 -0.0 0 0 1355.14 837.91
  L 1355.31 830.31
  A 0.50 0.50 -89.4 0 0 1354.81 829.80
  L 1313.05 829.78
  A 0.51 0.50 -0.0 0 0 1312.54 830.28
  L 1312.43 837.91
  A 0.51 0.50 1.1 0 0 1312.93 838.42
  L 1327.44 838.56
  A 0.50 0.50 0.0 0 1 1327.94 839.06"
/>
<path stroke="#9b9ec8" vector-effect="non-scaling-stroke" d="
  M 1379.24 830.07
  A 0.32 0.32 0.0 0 0 1378.92 829.75
  L 1367.82 829.75
  A 0.32 0.32 0.0 0 0 1367.50 830.07
  L 1367.50 887.93
  A 0.32 0.32 0.0 0 0 1367.82 888.25
  L 1378.92 888.25
  A 0.32 0.32 0.0 0 0 1379.24 887.93
  L 1379.24 830.07"
/>
<path stroke="#eb7726" vector-effect="non-scaling-stroke" d="
  M 1100.50 135.21
  Q 1099.77 135.67 1098.93 135.91
  C 873.95 201.27 655.31 292.49 460.41 423.69
  C 320.01 518.20 189.63 637.53 102.25 783.79"
/>
<path stroke="#8c3567" vector-effect="non-scaling-stroke" d="
  M 844.96 686.50
  L 844.78 686.61
  A 0.23 0.21 58.8 0 1 844.48 686.52
  L 815.07 636.15
  A 0.97 0.82 72.4 0 0 814.31 635.67
  L 803.93 635.67
  A 0.94 0.80 -72.7 0 0 803.19 636.14
  L 727.96 764.06
  Q 727.70 764.52 728.20 764.52
  L 754.28 764.59
  A 0.86 0.80 -74.2 0 0 755.02 764.14
  L 773.48 730.36
  A 0.93 0.89 12.2 0 1 774.23 729.90
  C 780.51 729.56 788.54 729.91 793.00 729.93
  Q 811.24 730.00 829.52 729.99"
/>
<path stroke="#8c3567" vector-effect="non-scaling-stroke" d="
  M 702.13 730.20
  C 704.58 710.32 688.49 697.44 671.54 691.71
  A 0.57 0.57 -56.8 0 1 671.34 690.74
  C 683.33 680.09 682.82 661.89 669.94 652.29
  Q 652.86 639.55 630.30 639.25
  Q 603.68 638.90 577.04 639.04
  A 0.29 0.29 90.0 0 0 576.75 639.33
  L 576.75 764.44
  A 0.31 0.31 0.0 0 0 577.06 764.75
  Q 609.16 764.76 641.25 764.76
  C 663.62 764.76 698.82 757.22 702.13 730.20"
/>
<path stroke="#8c3567" vector-effect="non-scaling-stroke" d="
  M 784.19 712.59
  A 0.57 0.57 -74.3 0 0 784.67 713.46
  L 832.86 713.54
  A 0.57 0.57 74.5 0 0 833.35 712.68
  L 809.32 672.79
  A 0.57 0.57 -44.3 0 0 808.35 672.79
  L 784.19 712.59"
/>
<path stroke="#8c3567" vector-effect="non-scaling-stroke" d="
  M 649.81 663.94
  C 635.46 653.66 619.67 655.52 602.67 655.76
  A 0.44 0.44 -0.7 0 0 602.24 656.20
  L 602.10 687.13
  A 0.51 0.50 -89.4 0 0 602.59 687.64
  C 617.33 687.93 632.63 689.72 646.17 682.15
  C 653.50 678.04 658.99 670.51 649.81 663.94"
/>
<path stroke="#8c3567" vector-effect="non-scaling-stroke" d="
  M 670.82 715.43
  Q 656.45 705.10 638.55 704.74
  Q 621.15 704.39 602.76 704.55
  A 0.67 0.65 90.0 0 0 602.11 705.22
  L 602.16 747.46
  A 0.53 0.53 0.6 0 0 602.68 747.99
  Q 620.28 748.04 638.00 747.98
  C 649.23 747.94 661.86 745.16 670.88 738.13
  C 678.76 731.99 679.19 721.44 670.82 715.43"
/>
<path stroke="#9b9ec9" vector-effect="non-scaling-stroke" d="
  M 1515.10 669.30
  C 1507.64 653.62 1474.13 655.58 1461.28 655.80
  A 0.52 0.51 89.4 0 0 1460.78 656.32
  L 1460.78 689.94
  A 0.51 0.51 0.6 0 0 1461.28 690.45
  Q 1475.86 690.75 1485.50 690.27
  C 1493.93 689.85 1521.76 683.29 1515.10 669.30"
/>
<path stroke="#9b9ec8" vector-effect="non-scaling-stroke" d="
  M 1272.79 862.95
  A 0.35 0.35 -75.5 0 0 1273.10 863.47
  L 1289.76 863.53
  A 0.35 0.35 -14.1 0 0 1290.07 863.01
  L 1281.79 847.63
  A 0.35 0.35 45.2 0 0 1281.18 847.63
  L 1272.79 862.95"
/>
<path stroke="#9b9ec8" vector-effect="non-scaling-stroke" d="
  M 963.6289 859.3144
  A 28.01 21.36 0.5 0 0 935.8064 837.7108
  A 28.01 21.36 0.5 0 0 907.6111 858.8256
  A 28.01 21.36 0.5 0 0 935.4336 880.4292
  A 28.01 21.36 0.5 0 0 963.6289 859.3144"
/>
<path stroke="#9b9ec8" vector-effect="non-scaling-stroke" d="
  M 1172.4089 859.3143
  A 27.99 21.36 0.5 0 0 1144.6064 837.7108
  A 27.99 21.36 0.5 0 0 1116.4311 858.8257
  A 27.99 21.36 0.5 0 0 1144.2336 880.4292
  A 27.99 21.36 0.5 0 0 1172.4089 859.3143"
/>
<path stroke="#9b9ec8" vector-effect="non-scaling-stroke" d="
  M 1459.6489 859.3143
  A 28.00 21.36 0.5 0 0 1431.8364 837.7108
  A 28.00 21.36 0.5 0 0 1403.6511 858.8257
  A 28.00 21.36 0.5 0 0 1431.4636 880.4292
  A 28.00 21.36 0.5 0 0 1459.6489 859.3143"
/>
<path stroke="#9b9ec8" vector-effect="non-scaling-stroke" d="
  M 1013.77 839.99
  Q 1006.96 837.49 999.56 838.74
  A 0.59 0.56 84.9 0 0 999.09 839.33
  L 999.24 852.48
  A 0.59 0.55 -86.1 0 0 999.71 853.06
  C 1004.84 853.82 1015.54 853.33 1018.80 848.45
  C 1021.65 844.19 1017.49 841.36 1013.77 839.99"
/>
<path stroke="#9b9ec8" vector-effect="non-scaling-stroke" d="
  M 1082.78 846.25
  C 1083.81 837.96 1067.52 838.33 1063.10 838.60
  A 0.54 0.53 -1.7 0 0 1062.59 839.13
  L 1062.54 852.67
  A 0.54 0.52 2.9 0 0 1063.04 853.20
  C 1067.97 853.57 1081.93 853.20 1082.78 846.25"
/>
<path stroke="#9b9ec8" vector-effect="non-scaling-stroke" d="
  M 1228.41 846.81
  C 1230.45 838.31 1212.79 838.39 1208.29 838.53
  A 0.53 0.52 -1.1 0 0 1207.78 839.05
  L 1207.78 852.68
  A 0.54 0.53 2.3 0 0 1208.28 853.21
  C 1213.46 853.53 1226.81 853.48 1228.41 846.81"
/>
</g>
<path fill="#ffffff" d="
  M 0.00 0.00
  L 1550.00 0.00
  L 1550.00 830.55
  Q 1544.54 829.58 1539.00 830.01
  A 0.55 0.54 87.8 0 0 1538.50 830.56
  L 1538.42 869.66
  Q 1538.42 870.31 1537.93 869.88
  L 1491.67 829.75
  A 1.34 1.26 -23.8 0 0 1490.79 829.44
  L 1486.02 829.55
  A 0.52 0.51 -0.6 0 0 1485.51 830.06
  L 1485.52 887.71
  A 0.50 0.49 89.4 0 0 1486.02 888.21
  L 1496.72 887.98
  A 0.53 0.53 -1.1 0 0 1497.23 887.45
  L 1497.25 849.73
  Q 1497.25 849.09 1497.74 849.50
  Q 1519.39 867.89 1540.98 886.37
  C 1544.00 888.95 1546.22 889.83 1550.00 888.81
  L 1550.00 1353.00
  L 0.00 1353.00
  L 0.00 772.21
  Q 51.85 771.75 102.25 783.79
  Q 85.10 813.24 71.97 844.72
  A 0.33 0.33 -79.0 0 0 72.28 845.18
  Q 113.37 844.88 149.51 851.48
  C 243.62 868.69 335.42 912.52 413.49 966.76
  C 508.72 1032.93 592.43 1116.71 647.98 1218.09
  Q 682.58 1281.25 696.24 1352.01
  Q 696.48 1353.27 696.70 1352.00
  C 731.40 1146.03 761.96 930.95 829.52 729.99
  L 843.64 730.11
  A 0.90 0.83 74.9 0 1 844.37 730.57
  L 863.14 764.19
  A 0.88 0.83 74.7 0 0 863.88 764.64
  L 889.77 764.55
  Q 890.28 764.54 890.02 764.09
  Q 867.57 725.70 845.16 687.42
  C 845.00 687.15 844.99 686.79 844.96 686.50
  Q 854.14 663.78 863.52 641.15
  C 928.79 483.64 1025.12 343.62 1150.19 227.92
  C 1212.38 170.38 1280.20 118.97 1351.48 73.23
  Q 1352.31 72.70 1351.35 72.91
  Q 1224.87 99.57 1100.50 135.21
  Q 1100.75 134.53 1101.70 133.70
  Q 1185.47 60.43 1278.58 1.00
  Q 1280.47 -0.21 1278.27 0.25
  C 1024.11 53.59 773.73 133.54 544.24 256.52
  C 429.57 317.97 320.93 391.49 224.37 478.87
  C 166.16 531.55 112.79 589.73 67.27 653.76
  C 40.82 690.97 17.34 730.00 0.00 771.69
  L 0.00 0.00
  Z
  M 941.31 677.46
  Q 941.31 676.98 941.70 677.27
  L 1059.10 766.22
  A 1.48 1.31 60.6 0 0 1059.99 766.53
  L 1071.14 766.37
  A 0.52 0.52 -0.6 0 0 1071.65 765.85
  C 1071.84 746.63 1071.40 727.39 1071.70 708.18
  Q 1071.94 692.30 1071.67 639.91
  A 0.52 0.50 90.0 0 0 1071.17 639.39
  L 1047.51 639.39
  A 0.52 0.50 90.0 0 0 1047.01 639.91
  Q 1046.84 682.96 1046.71 726.00
  Q 1046.71 727.77 1047.02 729.47
  Q 1047.20 730.42 1046.44 729.83
  L 928.42 638.72
  A 2.11 1.89 61.3 0 0 927.20 638.29
  L 916.27 638.30
  A 0.51 0.50 -0.0 0 0 915.76 638.80
  L 915.77 764.20
  A 0.51 0.50 0.0 0 0 916.28 764.70
  L 940.71 764.61
  A 0.50 0.50 0.0 0 0 941.21 764.11
  L 941.31 677.46
  Z
  M 1133.06 677.45
  Q 1133.06 676.91 1133.49 677.23
  L 1250.59 765.97
  A 1.81 1.79 -23.5 0 0 1251.49 766.32
  Q 1257.32 766.84 1263.23 766.25
  A 0.56 0.54 -2.9 0 0 1263.73 765.71
  L 1263.71 639.91
  A 0.51 0.50 90.0 0 0 1263.21 639.40
  L 1239.26 639.30
  A 0.52 0.50 90.0 0 0 1238.76 639.82
  L 1238.73 729.37
  Q 1238.73 730.18 1238.08 729.69
  L 1119.92 638.48
  A 1.40 1.39 63.1 0 0 1119.04 638.19
  L 1108.02 638.31
  A 0.50 0.50 0.0 0 0 1107.52 638.81
  L 1107.54 764.10
  A 0.50 0.49 90.0 0 0 1108.03 764.60
  L 1132.50 764.70
  A 0.50 0.49 -90.0 0 0 1132.99 764.20
  L 1133.06 677.45
  Z
  M 1325.06 704.56
  L 1398.02 704.52
  A 0.43 0.42 0.0 0 0 1398.45 704.10
  L 1398.36 687.79
  A 0.52 0.50 0.0 0 0 1397.84 687.29
  L 1325.06 687.23
  A 0.51 0.49 0.0 0 1 1324.55 686.74
  L 1324.54 656.26
  A 0.51 0.49 -0.0 0 1 1325.05 655.77
  L 1397.72 655.73
  A 0.54 0.50 0.5 0 0 1398.26 655.24
  L 1398.36 639.54
  A 0.53 0.50 0.0 0 0 1397.83 639.04
  L 1300.23 639.01
  A 1.22 1.22 0.0 0 0 1299.01 640.23
  L 1299.03 764.22
  A 0.50 0.49 0.0 0 0 1299.53 764.71
  L 1397.83 764.70
  A 0.52 0.49 0.0 0 0 1398.35 764.21
  L 1398.45 748.76
  A 0.52 0.50 0.0 0 0 1397.93 748.26
  L 1326.06 748.25
  Q 1324.16 748.25 1324.18 746.33
  L 1324.56 705.06
  A 0.50 0.50 0.0 0 1 1325.06 704.56
  Z
  M 1486.57 707.55
  Q 1485.94 706.98 1486.80 707.00
  C 1502.60 707.42 1522.22 702.24 1533.68 691.43
  C 1541.94 683.63 1543.57 671.56 1538.62 661.56
  C 1532.58 649.38 1514.16 642.23 1501.50 640.12
  Q 1495.39 639.10 1481.56 639.04
  Q 1459.01 638.93 1435.88 639.03
  A 0.89 0.88 -0.3 0 0 1435.00 639.91
  L 1435.00 764.26
  A 0.44 0.44 0.0 0 0 1435.44 764.70
  L 1459.92 764.63
  A 0.51 0.50 -90.0 0 0 1460.42 764.12
  L 1460.43 713.70
  Q 1460.43 712.84 1461.06 713.42
  L 1516.71 764.21
  A 2.04 2.01 65.6 0 0 1518.06 764.73
  L 1547.85 764.74
  Q 1548.93 764.74 1548.13 764.00
  L 1486.57 707.55
  Z
  M 1295.18 872.74
  L 1302.53 887.47
  A 1.41 1.28 75.5 0 0 1303.72 888.25
  L 1314.79 888.23
  A 0.48 0.48 76.0 0 0 1315.21 887.53
  L 1284.56 828.61
  A 0.93 0.70 72.0 0 0 1283.84 828.10
  L 1279.21 828.16
  A 0.95 0.69 -72.2 0 0 1278.50 828.68
  L 1247.78 887.57
  A 0.33 0.31 -74.8 0 0 1248.04 888.05
  L 1259.14 888.19
  A 1.60 1.42 -75.4 0 0 1260.49 887.29
  L 1267.58 872.74
  A 0.81 0.81 12.8 0 1 1268.31 872.28
  L 1294.44 872.31
  A 0.85 0.78 -12.5 0 1 1295.18 872.74
  Z
  M 896.84 852.05
  C 885.70 896.39 970.15 902.17 975.15 862.69
  C 980.30 821.94 905.41 817.95 896.84 852.05
  Z
  M 1105.06 855.33
  C 1098.77 896.12 1176.51 901.18 1183.62 864.13
  C 1191.70 822.09 1111.11 816.09 1105.06 855.33
  Z
  M 1392.06 856.81
  C 1388.66 898.28 1469.44 900.49 1471.32 860.12
  C 1473.18 820.12 1395.21 818.31 1392.06 856.81
  Z
  M 817.28 852.23
  C 812.02 872.77 830.70 886.50 848.85 888.19
  C 860.93 889.32 872.74 888.21 883.47 882.41
  A 0.98 0.74 -17.2 0 0 883.99 881.69
  L 884.16 875.17
  A 0.69 0.59 7.5 0 0 883.61 874.56
  Q 879.82 873.76 878.48 874.49
  C 867.12 880.69 852.11 882.22 840.35 876.15
  C 824.92 868.19 823.91 852.42 838.84 843.14
  C 850.89 835.65 865.11 838.39 877.97 843.58
  Q 879.40 844.16 883.53 843.64
  A 0.67 0.66 1.1 0 0 884.11 843.09
  Q 884.73 839.57 883.81 836.14
  A 1.22 1.19 7.7 0 0 883.24 835.41
  C 865.24 825.22 823.75 826.91 817.28 852.23
  Z
  M 999.43 866.42
  L 1020.30 887.55
  A 1.40 0.98 60.9 0 0 1021.14 887.96
  L 1034.13 888.15
  Q 1035.35 888.17 1034.48 887.26
  L 1010.51 862.39
  Q 1010.16 862.03 1010.66 861.98
  Q 1017.73 861.26 1023.92 857.96
  C 1033.90 852.63 1034.29 839.95 1024.56 834.18
  C 1014.04 827.94 999.36 829.53 987.57 829.89
  A 0.52 0.51 89.4 0 0 987.07 830.41
  L 987.06 887.34
  A 0.59 0.58 -86.1 0 0 987.56 887.92
  Q 992.95 888.67 998.28 888.05
  A 0.57 0.55 86.6 0 0 998.76 887.49
  L 999.04 866.56
  Q 999.04 866.03 999.43 866.42
  Z
  M 1062.25 862.48
  A 0.75 0.75 0.0 0 1 1063.00 861.73
  C 1073.15 861.84 1090.75 861.99 1094.24 849.10
  C 1097.71 836.26 1082.43 830.09 1072.42 829.87
  Q 1061.91 829.64 1051.26 829.80
  A 0.51 0.50 -90.0 0 0 1050.76 830.31
  L 1050.42 886.93
  A 1.32 1.31 -89.8 0 0 1051.73 888.26
  L 1061.35 888.25
  A 0.83 0.82 0.3 0 0 1062.18 887.44
  L 1062.25 862.48
  Z
  M 1207.81 866.38
  Q 1207.81 865.68 1208.30 866.18
  L 1229.26 887.76
  A 1.65 1.62 -21.6 0 0 1230.44 888.26
  L 1243.46 888.19
  Q 1244.18 888.19 1243.68 887.67
  L 1219.36 862.68
  Q 1218.48 861.77 1219.74 861.74
  C 1229.13 861.52 1242.49 855.11 1240.25 843.49
  C 1236.96 826.46 1207.18 829.61 1196.53 829.80
  A 0.52 0.51 -0.6 0 0 1196.02 830.31
  L 1196.01 887.38
  A 0.83 0.80 -90.0 0 0 1196.81 888.21
  L 1207.18 888.14
  A 0.52 0.52 -0.6 0 0 1207.69 887.62
  L 1207.81 866.38
  Z
  M 1327.94 839.06
  L 1327.96 887.51
  A 0.71 0.68 90.0 0 0 1328.64 888.22
  L 1339.23 888.20
  A 0.52 0.51 90.0 0 0 1339.74 887.68
  L 1339.77 839.05
  A 0.51 0.51 -0.6 0 1 1340.27 838.54
  L 1354.62 838.42
  A 0.53 0.52 -0.0 0 0 1355.14 837.91
  L 1355.31 830.31
  A 0.50 0.50 -89.4 0 0 1354.81 829.80
  L 1313.05 829.78
  A 0.51 0.50 -0.0 0 0 1312.54 830.28
  L 1312.43 837.91
  A 0.51 0.50 1.1 0 0 1312.93 838.42
  L 1327.44 838.56
  A 0.50 0.50 0.0 0 1 1327.94 839.06
  Z
  M 1379.24 830.07
  A 0.32 0.32 0.0 0 0 1378.92 829.75
  L 1367.82 829.75
  A 0.32 0.32 0.0 0 0 1367.50 830.07
  L 1367.50 887.93
  A 0.32 0.32 0.0 0 0 1367.82 888.25
  L 1378.92 888.25
  A 0.32 0.32 0.0 0 0 1379.24 887.93
  L 1379.24 830.07
  Z"
/>
<path fill="#f4c110" d="
  M 1100.50 135.21
  Q 1099.77 135.67 1098.93 135.91
  C 873.95 201.27 655.31 292.49 460.41 423.69
  C 320.01 518.20 189.63 637.53 102.25 783.79
  Q 51.85 771.75 0.00 772.21
  L 0.00 771.69
  C 17.34 730.00 40.82 690.97 67.27 653.76
  C 112.79 589.73 166.16 531.55 224.37 478.87
  C 320.93 391.49 429.57 317.97 544.24 256.52
  C 773.73 133.54 1024.11 53.59 1278.27 0.25
  Q 1280.47 -0.21 1278.58 1.00
  Q 1185.47 60.43 1101.70 133.70
  Q 1100.75 134.53 1100.50 135.21
  Z"
/>
<path fill="#e22d3c" d="
  M 844.96 686.50
  L 844.78 686.61
  A 0.23 0.21 58.8 0 1 844.48 686.52
  L 815.07 636.15
  A 0.97 0.82 72.4 0 0 814.31 635.67
  L 803.93 635.67
  A 0.94 0.80 -72.7 0 0 803.19 636.14
  L 727.96 764.06
  Q 727.70 764.52 728.20 764.52
  L 754.28 764.59
  A 0.86 0.80 -74.2 0 0 755.02 764.14
  L 773.48 730.36
  A 0.93 0.89 12.2 0 1 774.23 729.90
  C 780.51 729.56 788.54 729.91 793.00 729.93
  Q 811.24 730.00 829.52 729.99
  C 761.96 930.95 731.40 1146.03 696.70 1352.00
  Q 696.48 1353.27 696.24 1352.01
  Q 682.58 1281.25 647.98 1218.09
  C 592.43 1116.71 508.72 1032.93 413.49 966.76
  C 335.42 912.52 243.62 868.69 149.51 851.48
  Q 113.37 844.88 72.28 845.18
  A 0.33 0.33 -79.0 0 1 71.97 844.72
  Q 85.10 813.24 102.25 783.79
  C 189.63 637.53 320.01 518.20 460.41 423.69
  C 655.31 292.49 873.95 201.27 1098.93 135.91
  Q 1099.77 135.67 1100.50 135.21
  Q 1224.87 99.57 1351.35 72.91
  Q 1352.31 72.70 1351.48 73.23
  C 1280.20 118.97 1212.38 170.38 1150.19 227.92
  C 1025.12 343.62 928.79 483.64 863.52 641.15
  Q 854.14 663.78 844.96 686.50
  Z
  M 702.13 730.20
  C 704.58 710.32 688.49 697.44 671.54 691.71
  A 0.57 0.57 -56.8 0 1 671.34 690.74
  C 683.33 680.09 682.82 661.89 669.94 652.29
  Q 652.86 639.55 630.30 639.25
  Q 603.68 638.90 577.04 639.04
  A 0.29 0.29 90.0 0 0 576.75 639.33
  L 576.75 764.44
  A 0.31 0.31 0.0 0 0 577.06 764.75
  Q 609.16 764.76 641.25 764.76
  C 663.62 764.76 698.82 757.22 702.13 730.20
  Z"
/>
<path fill="#363c92" d="
  M 844.96 686.50
  C 844.99 686.79 845.00 687.15 845.16 687.42
  Q 867.57 725.70 890.02 764.09
  Q 890.28 764.54 889.77 764.55
  L 863.88 764.64
  A 0.88 0.83 74.7 0 1 863.14 764.19
  L 844.37 730.57
  A 0.90 0.83 74.9 0 0 843.64 730.11
  L 829.52 729.99
  Q 811.24 730.00 793.00 729.93
  C 788.54 729.91 780.51 729.56 774.23 729.90
  A 0.93 0.89 12.2 0 0 773.48 730.36
  L 755.02 764.14
  A 0.86 0.80 -74.2 0 1 754.28 764.59
  L 728.20 764.52
  Q 727.70 764.52 727.96 764.06
  L 803.19 636.14
  A 0.94 0.80 -72.7 0 1 803.93 635.67
  L 814.31 635.67
  A 0.97 0.82 72.4 0 1 815.07 636.15
  L 844.48 686.52
  A 0.23 0.21 58.8 0 0 844.78 686.61
  L 844.96 686.50
  Z
  M 784.19 712.59
  A 0.57 0.57 -74.3 0 0 784.67 713.46
  L 832.86 713.54
  A 0.57 0.57 74.5 0 0 833.35 712.68
  L 809.32 672.79
  A 0.57 0.57 -44.3 0 0 808.35 672.79
  L 784.19 712.59
  Z"
/>
<path fill="#363c92" d="
  M 941.31 677.46
  L 941.21 764.11
  A 0.50 0.50 0.0 0 1 940.71 764.61
  L 916.28 764.70
  A 0.51 0.50 0.0 0 1 915.77 764.20
  L 915.76 638.80
  A 0.51 0.50 -0.0 0 1 916.27 638.30
  L 927.20 638.29
  A 2.11 1.89 61.3 0 1 928.42 638.72
  L 1046.44 729.83
  Q 1047.20 730.42 1047.02 729.47
  Q 1046.71 727.77 1046.71 726.00
  Q 1046.84 682.96 1047.01 639.91
  A 0.52 0.50 -90.0 0 1 1047.51 639.39
  L 1071.17 639.39
  A 0.52 0.50 -90.0 0 1 1071.67 639.91
  Q 1071.94 692.30 1071.70 708.18
  C 1071.40 727.39 1071.84 746.63 1071.65 765.85
  A 0.52 0.52 -0.6 0 1 1071.14 766.37
  L 1059.99 766.53
  A 1.48 1.31 60.6 0 1 1059.10 766.22
  L 941.70 677.27
  Q 941.31 676.98 941.31 677.46
  Z"
/>
<path fill="#363c92" d="
  M 1133.06 677.45
  L 1132.99 764.20
  A 0.50 0.49 -90.0 0 1 1132.50 764.70
  L 1108.03 764.60
  A 0.50 0.49 90.0 0 1 1107.54 764.10
  L 1107.52 638.81
  A 0.50 0.50 0.0 0 1 1108.02 638.31
  L 1119.04 638.19
  A 1.40 1.39 63.1 0 1 1119.92 638.48
  L 1238.08 729.69
  Q 1238.73 730.18 1238.73 729.37
  L 1238.76 639.82
  A 0.52 0.50 -90.0 0 1 1239.26 639.30
  L 1263.21 639.40
  A 0.51 0.50 90.0 0 1 1263.71 639.91
  L 1263.73 765.71
  A 0.56 0.54 -2.9 0 1 1263.23 766.25
  Q 1257.32 766.84 1251.49 766.32
  A 1.81 1.79 -23.5 0 1 1250.59 765.97
  L 1133.49 677.23
  Q 1133.06 676.91 1133.06 677.45
  Z"
/>
<path fill="#363c92" d="
  M 671.54 691.71
  C 688.49 697.44 704.58 710.32 702.13 730.20
  C 698.82 757.22 663.62 764.76 641.25 764.76
  Q 609.16 764.76 577.06 764.75
  A 0.31 0.31 0.0 0 1 576.75 764.44
  L 576.75 639.33
  A 0.29 0.29 -90.0 0 1 577.04 639.04
  Q 603.68 638.90 630.30 639.25
  Q 652.86 639.55 669.94 652.29
  C 682.82 661.89 683.33 680.09 671.34 690.74
  A 0.57 0.57 -56.8 0 0 671.54 691.71
  Z
  M 649.81 663.94
  C 635.46 653.66 619.67 655.52 602.67 655.76
  A 0.44 0.44 -0.7 0 0 602.24 656.20
  L 602.10 687.13
  A 0.51 0.50 -89.4 0 0 602.59 687.64
  C 617.33 687.93 632.63 689.72 646.17 682.15
  C 653.50 678.04 658.99 670.51 649.81 663.94
  Z
  M 670.82 715.43
  Q 656.45 705.10 638.55 704.74
  Q 621.15 704.39 602.76 704.55
  A 0.67 0.65 90.0 0 0 602.11 705.22
  L 602.16 747.46
  A 0.53 0.53 0.6 0 0 602.68 747.99
  Q 620.28 748.04 638.00 747.98
  C 649.23 747.94 661.86 745.16 670.88 738.13
  C 678.76 731.99 679.19 721.44 670.82 715.43
  Z"
/>
<path fill="#363c92" d="
  M 1324.56 705.06
  L 1324.18 746.33
  Q 1324.16 748.25 1326.06 748.25
  L 1397.93 748.26
  A 0.52 0.50 -0.0 0 1 1398.45 748.76
  L 1398.35 764.21
  A 0.52 0.49 -0.0 0 1 1397.83 764.70
  L 1299.53 764.71
  A 0.50 0.49 0.0 0 1 1299.03 764.22
  L 1299.01 640.23
  A 1.22 1.22 0.0 0 1 1300.23 639.01
  L 1397.83 639.04
  A 0.53 0.50 -0.0 0 1 1398.36 639.54
  L 1398.26 655.24
  A 0.54 0.50 0.5 0 1 1397.72 655.73
  L 1325.05 655.77
  A 0.51 0.49 0.0 0 0 1324.54 656.26
  L 1324.55 686.74
  A 0.51 0.49 -0.0 0 0 1325.06 687.23
  L 1397.84 687.29
  A 0.52 0.50 -0.0 0 1 1398.36 687.79
  L 1398.45 704.10
  A 0.43 0.42 -0.0 0 1 1398.02 704.52
  L 1325.06 704.56
  A 0.50 0.50 0.0 0 0 1324.56 705.06
  Z"
/>
<path fill="#363c92" d="
  M 1486.57 707.55
  L 1548.13 764.00
  Q 1548.93 764.74 1547.85 764.74
  L 1518.06 764.73
  A 2.04 2.01 65.6 0 1 1516.71 764.21
  L 1461.06 713.42
  Q 1460.43 712.84 1460.43 713.70
  L 1460.42 764.12
  A 0.51 0.50 -90.0 0 1 1459.92 764.63
  L 1435.44 764.70
  A 0.44 0.44 0.0 0 1 1435.00 764.26
  L 1435.00 639.91
  A 0.89 0.88 -0.3 0 1 1435.88 639.03
  Q 1459.01 638.93 1481.56 639.04
  Q 1495.39 639.10 1501.50 640.12
  C 1514.16 642.23 1532.58 649.38 1538.62 661.56
  C 1543.57 671.56 1541.94 683.63 1533.68 691.43
  C 1522.22 702.24 1502.60 707.42 1486.80 707.00
  Q 1485.94 706.98 1486.57 707.55
  Z
  M 1515.10 669.30
  C 1507.64 653.62 1474.13 655.58 1461.28 655.80
  A 0.52 0.51 89.4 0 0 1460.78 656.32
  L 1460.78 689.94
  A 0.51 0.51 0.6 0 0 1461.28 690.45
  Q 1475.86 690.75 1485.50 690.27
  C 1493.93 689.85 1521.76 683.29 1515.10 669.30
  Z"
/>
<path fill="#e22d3c" d="
  M 649.81 663.94
  C 658.99 670.51 653.50 678.04 646.17 682.15
  C 632.63 689.72 617.33 687.93 602.59 687.64
  A 0.51 0.50 -89.4 0 1 602.10 687.13
  L 602.24 656.20
  A 0.44 0.44 -0.7 0 1 602.67 655.76
  C 619.67 655.52 635.46 653.66 649.81 663.94
  Z"
/>
<path fill="#ffffff" d="
  M 1515.10 669.30
  C 1521.76 683.29 1493.93 689.85 1485.50 690.27
  Q 1475.86 690.75 1461.28 690.45
  A 0.51 0.51 0.6 0 1 1460.78 689.94
  L 1460.78 656.32
  A 0.52 0.51 89.4 0 1 1461.28 655.80
  C 1474.13 655.58 1507.64 653.62 1515.10 669.30
  Z"
/>
<path fill="#e22d3c" d="
  M 784.19 712.59
  L 808.35 672.79
  A 0.57 0.57 -47.0 0 1 809.32 672.79
  L 833.35 712.68
  A 0.57 0.57 74.4 0 1 832.86 713.54
  L 784.67 713.46
  A 0.57 0.57 -74.5 0 1 784.19 712.59
  Z"
/>
<path fill="#e22d3c" d="
  M 670.82 715.43
  C 679.19 721.44 678.76 731.99 670.88 738.13
  C 661.86 745.16 649.23 747.94 638.00 747.98
  Q 620.28 748.04 602.68 747.99
  A 0.53 0.53 0.6 0 1 602.16 747.46
  L 602.11 705.22
  A 0.67 0.65 90.0 0 1 602.76 704.55
  Q 621.15 704.39 638.55 704.74
  Q 656.45 705.10 670.82 715.43
  Z"
/>
<path fill="#363c91" d="
  M 1294.44 872.31
  L 1268.31 872.28
  A 0.81 0.81 12.8 0 0 1267.58 872.74
  L 1260.49 887.29
  A 1.60 1.42 -75.4 0 1 1259.14 888.19
  L 1248.04 888.05
  A 0.33 0.31 -74.8 0 1 1247.78 887.57
  L 1278.50 828.68
  A 0.95 0.69 -72.2 0 1 1279.21 828.16
  L 1283.84 828.10
  A 0.93 0.70 72.0 0 1 1284.56 828.61
  L 1315.21 887.53
  A 0.48 0.48 76.0 0 1 1314.79 888.23
  L 1303.72 888.25
  A 1.41 1.28 75.5 0 1 1302.53 887.47
  L 1295.18 872.74
  A 0.85 0.78 -12.5 0 0 1294.44 872.31
  Z
  M 1272.79 862.95
  A 0.35 0.35 -75.5 0 0 1273.10 863.47
  L 1289.76 863.53
  A 0.35 0.35 -14.1 0 0 1290.07 863.01
  L 1281.79 847.63
  A 0.35 0.35 45.2 0 0 1281.18 847.63
  L 1272.79 862.95
  Z"
/>
<path fill="#363c91" d="
  M 975.15 862.69
  C 970.15 902.17 885.70 896.39 896.84 852.05
  C 905.41 817.95 980.30 821.94 975.15 862.69
  Z
  M 963.6289 859.3144
  A 28.01 21.36 0.5 0 0 935.8064 837.7108
  A 28.01 21.36 0.5 0 0 907.6111 858.8256
  A 28.01 21.36 0.5 0 0 935.4336 880.4292
  A 28.01 21.36 0.5 0 0 963.6289 859.3144
  Z"
/>
<path fill="#363c91" d="
  M 1183.62 864.13
  C 1176.51 901.18 1098.77 896.12 1105.06 855.33
  C 1111.11 816.09 1191.70 822.09 1183.62 864.13
  Z
  M 1172.4089 859.3143
  A 27.99 21.36 0.5 0 0 1144.6064 837.7108
  A 27.99 21.36 0.5 0 0 1116.4311 858.8257
  A 27.99 21.36 0.5 0 0 1144.2336 880.4292
  A 27.99 21.36 0.5 0 0 1172.4089 859.3143
  Z"
/>
<path fill="#363c91" d="
  M 1471.32 860.12
  C 1469.44 900.49 1388.66 898.28 1392.06 856.81
  C 1395.21 818.31 1473.18 820.12 1471.32 860.12
  Z
  M 1459.6489 859.3143
  A 28.00 21.36 0.5 0 0 1431.8364 837.7108
  A 28.00 21.36 0.5 0 0 1403.6511 858.8257
  A 28.00 21.36 0.5 0 0 1431.4636 880.4292
  A 28.00 21.36 0.5 0 0 1459.6489 859.3143
  Z"
/>
<path fill="#363c91" d="
  M 848.85 888.19
  C 830.70 886.50 812.02 872.77 817.28 852.23
  C 823.75 826.91 865.24 825.22 883.24 835.41
  A 1.22 1.19 7.7 0 1 883.81 836.14
  Q 884.73 839.57 884.11 843.09
  A 0.67 0.66 1.1 0 1 883.53 843.64
  Q 879.40 844.16 877.97 843.58
  C 865.11 838.39 850.89 835.65 838.84 843.14
  C 823.91 852.42 824.92 868.19 840.35 876.15
  C 852.11 882.22 867.12 880.69 878.48 874.49
  Q 879.82 873.76 883.61 874.56
  A 0.69 0.59 7.5 0 1 884.16 875.17
  L 883.99 881.69
  A 0.98 0.74 -17.2 0 1 883.47 882.41
  C 872.74 888.21 860.93 889.32 848.85 888.19
  Z"
/>
<path fill="#363c91" d="
  M 1550.00 830.55
  L 1550.00 888.81
  C 1546.22 889.83 1544.00 888.95 1540.98 886.37
  Q 1519.39 867.89 1497.74 849.50
  Q 1497.25 849.09 1497.25 849.73
  L 1497.23 887.45
  A 0.53 0.53 -1.1 0 1 1496.72 887.98
  L 1486.02 888.21
  A 0.50 0.49 89.4 0 1 1485.52 887.71
  L 1485.51 830.06
  A 0.52 0.51 -0.6 0 1 1486.02 829.55
  L 1490.79 829.44
  A 1.34 1.26 -23.8 0 1 1491.67 829.75
  L 1537.93 869.88
  Q 1538.42 870.31 1538.42 869.66
  L 1538.50 830.56
  A 0.55 0.54 87.8 0 1 1539.00 830.01
  Q 1544.54 829.58 1550.00 830.55
  Z"
/>
<path fill="#363c91" d="
  M 999.04 866.56
  L 998.76 887.49
  A 0.57 0.55 86.6 0 1 998.28 888.05
  Q 992.95 888.67 987.56 887.92
  A 0.59 0.58 -86.1 0 1 987.06 887.34
  L 987.07 830.41
  A 0.52 0.51 89.4 0 1 987.57 829.89
  C 999.36 829.53 1014.04 827.94 1024.56 834.18
  C 1034.29 839.95 1033.90 852.63 1023.92 857.96
  Q 1017.73 861.26 1010.66 861.98
  Q 1010.16 862.03 1010.51 862.39
  L 1034.48 887.26
  Q 1035.35 888.17 1034.13 888.15
  L 1021.14 887.96
  A 1.40 0.98 60.9 0 1 1020.30 887.55
  L 999.43 866.42
  Q 999.04 866.03 999.04 866.56
  Z
  M 1013.77 839.99
  Q 1006.96 837.49 999.56 838.74
  A 0.59 0.56 84.9 0 0 999.09 839.33
  L 999.24 852.48
  A 0.59 0.55 -86.1 0 0 999.71 853.06
  C 1004.84 853.82 1015.54 853.33 1018.80 848.45
  C 1021.65 844.19 1017.49 841.36 1013.77 839.99
  Z"
/>
<path fill="#363c91" d="
  M 1062.25 862.48
  L 1062.18 887.44
  A 0.83 0.82 0.3 0 1 1061.35 888.25
  L 1051.73 888.26
  A 1.32 1.31 -89.8 0 1 1050.42 886.93
  L 1050.76 830.31
  A 0.51 0.50 -90.0 0 1 1051.26 829.80
  Q 1061.91 829.64 1072.42 829.87
  C 1082.43 830.09 1097.71 836.26 1094.24 849.10
  C 1090.75 861.99 1073.15 861.84 1063.00 861.73
  A 0.75 0.75 0.0 0 0 1062.25 862.48
  Z
  M 1082.78 846.25
  C 1083.81 837.96 1067.52 838.33 1063.10 838.60
  A 0.54 0.53 -1.7 0 0 1062.59 839.13
  L 1062.54 852.67
  A 0.54 0.52 2.9 0 0 1063.04 853.20
  C 1067.97 853.57 1081.93 853.20 1082.78 846.25
  Z"
/>
<path fill="#363c91" d="
  M 1207.81 866.38
  L 1207.69 887.62
  A 0.52 0.52 -0.6 0 1 1207.18 888.14
  L 1196.81 888.21
  A 0.83 0.80 -90.0 0 1 1196.01 887.38
  L 1196.02 830.31
  A 0.52 0.51 -0.6 0 1 1196.53 829.80
  C 1207.18 829.61 1236.96 826.46 1240.25 843.49
  C 1242.49 855.11 1229.13 861.52 1219.74 861.74
  Q 1218.48 861.77 1219.36 862.68
  L 1243.68 887.67
  Q 1244.18 888.19 1243.46 888.19
  L 1230.44 888.26
  A 1.65 1.62 -21.6 0 1 1229.26 887.76
  L 1208.30 866.18
  Q 1207.81 865.68 1207.81 866.38
  Z
  M 1228.41 846.81
  C 1230.45 838.31 1212.79 838.39 1208.29 838.53
  A 0.53 0.52 -1.1 0 0 1207.78 839.05
  L 1207.78 852.68
  A 0.54 0.53 2.3 0 0 1208.28 853.21
  C 1213.46 853.53 1226.81 853.48 1228.41 846.81
  Z"
/>
<path fill="#363c91" d="
  M 1327.44 838.56
  L 1312.93 838.42
  A 0.51 0.50 1.1 0 1 1312.43 837.91
  L 1312.54 830.28
  A 0.51 0.50 -0.0 0 1 1313.05 829.78
  L 1354.81 829.80
  A 0.50 0.50 -89.4 0 1 1355.31 830.31
  L 1355.14 837.91
  A 0.53 0.52 -0.0 0 1 1354.62 838.42
  L 1340.27 838.54
  A 0.51 0.51 -0.6 0 0 1339.77 839.05
  L 1339.74 887.68
  A 0.52 0.51 90.0 0 1 1339.23 888.20
  L 1328.64 888.22
  A 0.71 0.68 -90.0 0 1 1327.96 887.51
  L 1327.94 839.06
  A 0.50 0.50 0.0 0 0 1327.44 838.56
  Z"
/>
<rect fill="#363c91" x="1367.50" y="829.75" width="11.74" height="58.50" rx="0.32"/>
<ellipse fill="#ffffff" cx="0.00" cy="0.00" transform="translate(935.62,859.07) rotate(0.5)" rx="28.01" ry="21.36"/>
<ellipse fill="#ffffff" cx="0.00" cy="0.00" transform="translate(1144.42,859.07) rotate(0.5)" rx="27.99" ry="21.36"/>
<ellipse fill="#ffffff" cx="0.00" cy="0.00" transform="translate(1431.65,859.07) rotate(0.5)" rx="28.00" ry="21.36"/>
<path fill="#ffffff" d="
  M 1013.77 839.99
  C 1017.49 841.36 1021.65 844.19 1018.80 848.45
  C 1015.54 853.33 1004.84 853.82 999.71 853.06
  A 0.59 0.55 -86.1 0 1 999.24 852.48
  L 999.09 839.33
  A 0.59 0.56 84.9 0 1 999.56 838.74
  Q 1006.96 837.49 1013.77 839.99
  Z"
/>
<path fill="#ffffff" d="
  M 1063.10 838.60
  C 1067.52 838.33 1083.81 837.96 1082.78 846.25
  C 1081.93 853.20 1067.97 853.57 1063.04 853.20
  A 0.54 0.52 2.9 0 1 1062.54 852.67
  L 1062.59 839.13
  A 0.54 0.53 -1.7 0 1 1063.10 838.60
  Z"
/>
<path fill="#ffffff" d="
  M 1208.29 838.53
  C 1212.79 838.39 1230.45 838.31 1228.41 846.81
  C 1226.81 853.48 1213.46 853.53 1208.28 853.21
  A 0.54 0.53 2.3 0 1 1207.78 852.68
  L 1207.78 839.05
  A 0.53 0.52 -1.1 0 1 1208.29 838.53
  Z"
/>
<path fill="#ffffff" d="
  M 1272.79 862.95
  L 1281.18 847.63
  A 0.35 0.35 45.2 0 1 1281.79 847.63
  L 1290.07 863.01
  A 0.35 0.35 -14.5 0 1 1289.76 863.53
  L 1273.10 863.47
  A 0.35 0.35 -75.4 0 1 1272.79 862.95
  Z"
/>
</svg>
